<svg width="152" height="142" viewBox="0 0 152 142" fill="none" xmlns="http://www.w3.org/2000/svg">
<path d="M126.782 64.9523H25.1343C21.8218 64.9523 19.1365 67.4638 19.1365 70.5619V71.1523C19.1365 74.2504 21.8218 76.7619 25.1343 76.7619H126.782C130.094 76.7619 132.78 74.2504 132.78 71.1523V70.5619C132.78 67.4638 130.094 64.9523 126.782 64.9523Z" fill="#E57E9E"/>
<path d="M126.782 94.4769H25.1343C21.8218 94.4769 19.1365 96.9884 19.1365 100.087V100.677C19.1365 103.775 21.8218 106.287 25.1343 106.287H126.782C130.094 106.287 132.78 103.775 132.78 100.677V100.087C132.78 96.9884 130.094 94.4769 126.782 94.4769Z" fill="#E57E9E"/>
<path d="M126.782 35.4283H25.1343C21.8218 35.4283 19.1365 37.9398 19.1365 41.0379V41.6284C19.1365 44.7265 21.8218 47.238 25.1343 47.238H126.782C130.094 47.238 132.78 44.7265 132.78 41.6284V41.0379C132.78 37.9398 130.094 35.4283 126.782 35.4283Z" fill="#E57E9E"/>
</svg>
