<?xml version="1.0" encoding="UTF-8"?>
<svg id="_Слой_1" data-name="Слой 1" xmlns="http://www.w3.org/2000/svg" viewBox="0 0 2062.61 2093.91">
  <defs>
    <style>
      .cls-1 {
        fill-rule: evenodd;
      }

      .cls-1, .cls-2 {
        fill: #ffe3f3;
      }
    </style>
  </defs>
  <path class="cls-1" d="M726.93,201.29c-21.1-31.52-61.33-62-120.92-79.6-59.6-17.6-138.56-22.33-208.83-7.35-70.27,14.97-131.85,49.65-171.58,89.84-39.73,40.19-57.61,85.9-57.15,127.27,.46,41.38,19.25,78.42,48.35,104.15,29.09,25.73,68.48,40.16,114.71,48.96,46.23,8.8,99.28,11.98,147.29,6.63,48.01-5.35,90.99-19.21,133.97-33.09,99.26,27.9,198.54,55.8,297.8,83.7-58.84-65.55-117.68-131.09-176.52-196.64,5.99-15.74,11.98-31.47,13.98-55.62,2-24.16,.01-56.73-21.1-88.25Z"/>
  <g>
    <path class="cls-1" d="M336.07,952.7l-67.16,2.79,114.21-178.23,205.54,89.62,132.64-108.23,138.38,92.41,127.75-101.18,141.72,110.54-45.07,36.11-96.58-82.73-117.24,105.31-143.45-89.92-122.86,103.26-189.48-85.73-78.4,105.98Z"/>
    <path class="cls-1" d="M343.41,1045.53l-5.23-45.53,134.34-67.55,144.98,67.76,123.71-81.87,145.97,51.49,67.07-76.56,162.85,55.21-19.63,50.99-105.41-41.37-79.49,59.38-162.48-46.38-115.48,78.58-147.85-62.16-143.33,58.02Z"/>
  </g>
  <g>
    <path class="cls-2" d="M1755.15,911.69l-41.76-29.76,49.29-35.03,36.93,47.94-34.8,23.73-9.66-6.88Z"/>
    <path class="cls-2" d="M1655.28,643.44l-167.17-212.69-78.28,19.91,180.51,203.35,64.93-10.58Zm-135.9-253.64l192.15,244.47,9.26-1.51,41.55,204.81-52.42,38.72-237.24-81.62,6.61-9.87-231.63-251.87,19.81-22.47c-1.75-1.19-3.45-2.37-5.02-3.53-4.09-3.01-8.55-6.56-13.51-10.96l-3.74-3.11,.04-.04c-18.31-15.07-44.9-37.03-17.37-71.67l-.07-.04,.19-.21c5.34-6.71,12.34-15.49,25.58-27.75,6.51-6.04,14.53-12.88,23.85-19.73,9.46-6.96,20.33-13.98,32.41-20.27,10.86-5.65,22.31-10.56,33.4-14.7,13.42-5.01,26.95-9.15,38.43-12.24,10.97-2.95,20.26-4.98,28.49-5.83,10.75-1.12,20.05-.34,28.68,2.76,9.28,3.33,16.46,8.85,22.54,16.29,4.6,5.62,8.29,12.07,11.88,19.45,3.64,7.47,7.11,15.56,10.52,23.94l25.11-6.39,10.5,13.37Zm-161.26,24.98l75.72-19.26c-2.7-6.59-5.27-12.57-7.61-17.38-2.19-4.51-4.17-8.12-6.02-10.38-.37-.45,.16-.44-.15-.55-.35-.13-1.78-.05-4.26,.2-5.01,.52-11.51,1.98-19.61,4.16-9.68,2.6-21.39,6.21-33.59,10.77-9.55,3.57-19,7.58-27.34,11.92-9.44,4.91-18.02,10.46-25.56,16.01-7.68,5.65-14.27,11.27-19.61,16.21-10.25,9.49-16.03,16.73-20.45,22.28l-.07,.13h-.1c-.23,.28,5.92,5.35,10.13,8.81h.1c1.44,1.18,2.71,2.22,4.96,4.21,3.72,3.31,7.05,5.95,10.08,8.18,2,1.47,3.67,2.65,5.12,3.65l50.18-56.91,8.09-2.06Zm6.98,60.31l-50.51,57.29,193.13,210,40.71-60.76-183.33-206.53Zm230.81,226.12l-46.52,69.42,151.05,51.97,5.64-4.16-26.55-130.85-83.62,13.63Z"/>
  </g>
  <path class="cls-1" d="M1112.57,1443.33l78.7-290.7,281.85,62.78,40.8-67.43,179.26,40.5-51.94,425.67-82.74,14.68-445.92-185.51Z"/>
  <path class="cls-1" d="M307.32,1393.3c10.42-25.58,20.83-51.15,39.05-79.11,18.22-27.95,44.24-58.28,70.49-74.99,26.25-16.71,52.74-19.81,75.45-10.18,22.7,9.62,41.62,31.97,40.76,55.99-1.37,38.01-73.66,103.74-106.5,125.41,28.82,1.83,47.22,2.98,74.65,9.98,27.43,7,53.46,19.19,74.3,36.23,20.83,17.05,36.45,38.97,37.76,59.68,1.3,20.7-11.72,40.19-33.2,51.15-21.48,10.96-51.43,13.39-80.72,8.52-13.35-2.22-26.56-5.96-38.72-10.35,7.46,36.55,21.25,94.09,35.05,151.63,2.4-4.49,4.8-8.98,30.9-36.76,26.09-27.77,75.87-78.84,125.66-129.9,3.6-2.81,7.2-5.62,10.8-8.42,110.25,81.02,187.76,131.52,298.73,220.53-32.8,3.84-69.65,4.65-95.68,5.89-15.13-8.43-164.17-84.29-174.94-88.33-10.5,14.08-120.41,150.13-120.44,150.37l33.58,205.95-32.89,3.97c-29.45-72.81-53.42-148.46-119.04-280.6-23.61-47.56-47.77-107-62.77-146.01-3-7.8-5.67-14.75-8.03-21.03l-.03,.1c-7.81,25.58-23.43,53.59-49.47,65.16-26.04,11.57-62.5,6.7-83.32-11.57-20.83-18.27-26.04-49.93-18.88-76.12,7.16-26.19,26.69-46.89,38.41-59.68,11.72-12.79,15.62-17.66,19.52-22.53-15.62-1.22-31.24-2.44-55.98-3.65-24.74-1.22-58.59-2.44-87.23-14.62-28.64-12.18-52.07-35.32-60.54-56.64-8.46-21.31-1.95-40.79,18.23-51.76,20.18-10.96,54.02-13.4,85.92-9.14,31.9,4.27,61.84,15.23,81.37,23.14,19.53,7.92,28.64,12.79,37.75,17.66Z"/>
</svg>