<svg width="109" height="103" viewBox="0 0 109 103" fill="none" xmlns="http://www.w3.org/2000/svg">
<g clip-path="url(#clip0_143_516)">
<path fill-rule="evenodd" clip-rule="evenodd" d="M32.4422 54.6367L43.739 54.6222C45.7812 54.6222 46.8239 54.84 47.9681 56.0018C49.7206 57.788 50.213 61.0991 48.5185 63.3936C47.3743 64.9474 45.926 65.4993 43.6666 65.4993C41.7259 65.4993 33.6588 65.6009 32.4422 65.4848L32.4567 54.6367H32.4422ZM65.1161 37.8055L84.9001 37.7765V32.8825L65.1161 32.9115L65.1306 37.8055H65.1161ZM67.4769 54.4624C67.1293 53.17 68.6066 50.3236 69.7218 49.249C70.3156 48.6681 71.0832 48.1743 71.9811 47.7532C74.646 46.5043 78.3972 47.1868 80.4827 49.3216C81.6269 50.4834 82.8435 52.894 82.6842 54.4624H67.4769ZM90.3602 59.3419C90.7368 57.4685 90.3892 54.4624 89.9112 52.6907C88.9264 49.1037 86.9712 46.1848 83.9297 44.1517C82.5249 43.2077 80.8014 42.409 78.8317 42.0024C69.6204 40.0855 62.4802 45.1247 60.3222 51.8775C59.0043 55.9873 59.3374 60.5472 61.1333 64.1197C62.7119 67.2419 65.1886 69.6962 68.6355 71.1339C73.2412 73.0363 79.0924 72.7458 83.5532 70.219C84.1904 69.8559 85.1898 69.1443 85.6387 68.7087C86.5367 67.8373 88.5064 65.9204 88.7961 64.5844L82.3076 62.8127C81.2359 66.1383 73.9653 69.2024 69.3887 64.0616C68.679 63.2629 67.4769 60.9974 67.5638 59.4145C73.2122 59.3564 79.0199 59.4145 84.6973 59.4145C85.6098 59.4145 89.8388 59.5161 90.3602 59.3564V59.3419ZM32.4132 37.8345C34.745 37.7329 38.7713 37.8055 40.9148 37.82C43.377 37.82 45.7087 37.5151 47.1715 39.8676C48.7212 42.38 48.1854 46.6785 44.9846 47.8984C43.5942 48.4212 41.1466 48.2469 39.4665 48.2469L32.4132 48.2324V38.2702V37.8491V37.8345ZM24.3896 72.3247C25.1282 72.4409 26.9965 72.3392 27.851 72.3392H38.5106C40.7265 72.3392 43.4204 72.4699 45.5784 72.3247C48.953 72.0778 50.8937 71.0903 51.3137 71.0613C51.4296 70.9451 51.2268 71.0758 51.5165 70.887L52.7041 70.2771C53.211 69.9721 53.5152 69.7543 53.9786 69.4203C58.8739 65.8623 58.4684 57.8316 55.1952 54.3898C52.3131 51.3692 51.0385 51.7758 50.1261 51.0933C50.4447 50.8464 50.9661 50.6286 51.3137 50.4107C51.7048 50.1639 51.9799 49.946 52.342 49.6411C54.3986 47.9275 55.6007 45.328 55.8759 42.38C56.2235 38.5607 54.4276 34.6832 51.4875 32.5194C49.9233 31.3867 48.2867 30.9075 45.8536 30.922H31.5153C29.2559 30.9365 26.591 30.7913 24.3606 30.9365L24.3751 72.3247H24.3896ZM7.24156 12.566C6.9519 12.7112 6.27119 13.7277 6.02498 14.0618L3.92492 17.4309C2.43316 20.4806 1.82487 21.5842 0.89795 25.36C-0.231734 29.8909 -0.0144871 33.4924 -0.0144871 38.1686V71.192C-0.0144871 72.9346 0.564838 76.5797 1.05726 78.3078C1.89729 81.2849 2.65041 83.3615 4.21459 86.1643C4.38838 86.4838 4.5477 86.7162 4.7215 87.0211C4.92426 87.3697 5.06909 87.5584 5.28634 87.907L8.87815 92.525L12.0355 95.5166C12.2672 95.6618 12.2672 95.6764 12.4265 95.8071L17.3942 99.1181C20.5371 100.904 25.1717 102.328 28.7924 102.763C30.5594 102.981 32.1236 102.996 34.0788 102.996H77.253C77.4268 102.996 77.7599 103.039 77.9047 102.937C81.2648 102.749 85.827 101.863 88.8685 100.367C90.6064 99.5247 90.4616 99.7426 92.721 98.4065L95.1107 96.8672C96.9935 95.4295 97.4714 95.0664 99.2963 93.2802C100.484 92.1184 100.556 92.0168 101.556 90.7533L103.192 88.546C103.352 88.3427 103.424 88.241 103.569 87.9941C103.699 87.7908 103.83 87.6601 103.945 87.4278C104.076 87.1809 104.192 87.0066 104.322 86.7888C104.467 86.5564 104.568 86.4112 104.67 86.1934C104.8 85.9029 104.872 85.8303 105.032 85.5253C106.205 83.3325 107.103 80.9363 107.783 78.5402C109.174 73.7479 108.928 69.1879 108.928 64.2358V33.1003C108.928 26.4782 106.972 20.466 103.598 15.1219C102.99 14.1489 101.918 12.7257 101.165 11.8253C100.846 11.4478 100.585 11.1138 100.238 10.7797L98.8618 9.32753C98.6735 9.13874 98.4997 9.03708 98.3115 8.8483C96.8342 7.38156 95.1252 6.20526 93.4017 5.05801C93.141 4.88374 93.0396 4.84018 92.7644 4.68043L90.2733 3.32987C89.8678 3.12656 89.3609 2.8942 88.9264 2.71994C82.3945 0.091426 79.5558 0.0333372 72.2708 0.0333372C67.1003 0.0333372 61.9154 0.0333372 56.7449 0.0333372C51.6034 0.0333372 46.4474 0.0333372 41.3059 0.0333372C32.6884 0.0333372 28.2131 -0.533027 20.4936 2.48758C19.3639 2.92325 16.4673 4.34642 15.3521 5.13062C14.0052 6.08908 12.1079 7.29442 10.9348 8.48524C10.1816 9.24039 7.42984 11.7382 7.21259 12.566H7.24156Z" fill="#E57E9E"/>
<path fill-rule="evenodd" clip-rule="evenodd" d="M32.4278 65.4847C33.6589 65.6008 41.7115 65.4992 43.6522 65.4992C45.9261 65.4992 47.3744 64.9473 48.5041 63.3935C50.1986 61.0844 49.7062 57.7879 47.9537 56.0017C46.8096 54.8399 45.7813 54.6221 43.7247 54.6221L32.4278 54.6366L32.4133 65.4847H32.4278Z" fill="#E57E9E"/>
<path fill-rule="evenodd" clip-rule="evenodd" d="M32.4277 38.2555V48.2177L39.481 48.2322C41.1611 48.2322 43.6087 48.421 44.9991 47.8836C48.2143 46.6493 48.7502 42.3507 47.186 39.8529C45.7232 37.5003 43.3915 37.8053 40.9293 37.8053C38.7858 37.8053 34.7595 37.7181 32.4277 37.8198V38.2409V38.2555Z" fill="#E57E9E"/>
<path fill-rule="evenodd" clip-rule="evenodd" d="M67.477 54.4764H82.6842C82.8291 52.8934 81.627 50.4973 80.4828 49.3355C78.3972 47.2153 74.6461 46.5182 71.9812 47.7671C71.0833 48.1883 70.3156 48.682 69.7218 49.2629C68.6066 50.3521 67.1149 53.1839 67.477 54.4764Z" fill="#E57E9E"/>
</g>
<defs>
<clipPath id="clip0_143_516">
<rect width="109" height="103" fill="white"/>
</clipPath>
</defs>
</svg>
