<?xml version="1.0" encoding="utf-8"?>
<!-- Generator: Adobe Illustrator 26.5.0, SVG Export Plug-In . SVG Version: 6.00 Build 0)  -->
<svg version="1.1" id="Слой_1" xmlns:xodm="http://www.corel.com/coreldraw/odm/2003"
	 xmlns="http://www.w3.org/2000/svg" xmlns:xlink="http://www.w3.org/1999/xlink" x="0px" y="0px" viewBox="0 0 44.8 42.3"
	 style="enable-background:new 0 0 44.8 42.3;" xml:space="preserve">
<style type="text/css">
	.st0{fill:#FFFFFF;}
	.st1{fill:#F082C9;}
	.st2{fill:none;stroke:#F082C9;stroke-miterlimit:10;}
</style>
<g id="Слой_x0020_1">
	<g id="XMLID_00000142170266669824510380000011324610871052539572_">
		<g>
			<path class="st0" d="M44.1,26.2c0,2,0.1,3.8-0.5,5.7c-0.3,0.9-0.6,1.9-1.1,2.8c-1.4,2.6-3.8,4.8-6.4,5.9c-1.2,0.6-3,0.9-4.4,1
				c0,0-7.8,0-12.9,0h-4.5c-0.8,0-1.4,0-2.1-0.1c-1.4-0.2-3.3-0.7-4.5-1.4l-2-1.3c-1.1-0.9-2.5-2.6-3.3-3.8
				c-0.6-1.1-0.9-1.9-1.3-3.1c-0.2-0.7-0.4-2.1-0.4-2.8V15.8c0-1.9-0.1-3.3,0.4-5.1c0.4-1.5,0.6-1.9,1.2-3.2c0.3-0.4,1-1.6,1.3-1.9
				c1.1-1.5,3.4-3.4,5.3-4c3.1-1.2,4.9-1,8.3-1c2,0,4.1,0,6.1,0s4.1,0,6.2,0c2.9,0,4,0,6.6,1.1c2.4,1,4.4,2.8,5.8,4.9
				c1.3,2.1,2.1,4.5,2.1,7.1V26.2z M36.8,24.2c0.1-0.7-0.1-1.9-0.3-2.6c-0.4-1.4-1.2-2.6-2.4-3.4c-0.6-0.4-1.2-0.7-2-0.9
				c-3.7-0.8-6.5,1.2-7.4,3.9c-0.5,1.6-0.4,3.5,0.3,4.9c0.6,1.2,1.6,2.2,3,2.8c1.8,0.8,4.2,0.6,5.9-0.4c0.2-0.1,0.7-0.4,0.8-0.6
				c0.3-0.4,1.1-1.1,1.2-1.6l-2.6-0.7v-1.4C35.2,24.2,36.5,24.2,36.8,24.2L36.8,24.2z M34.5,15.7v-2l-7.9,0v1.9L34.5,15.7z M23,17.5
				c0.1-1.5-0.6-3-1.8-3.9C20.6,13.1,19.9,13,19,13c0,0-7.7,0-8.6,0v16.4h0c0.3,0,1,0,1.4,0H16c0.9,0,2,0,2.8,0
				c1.4-0.1,2.2-0.5,2.4-0.6l0.5-0.2c0.2-0.1,0.3-0.2,0.5-0.3c1.9-1.4,1.8-4.6,0.5-6c-1.1-1.2-1.6-1-2-1.3c0.1-0.1,0.3-0.2,0.5-0.3
				c0.2-0.1,0.3-0.2,0.4-0.3C22.4,19.7,22.8,18.7,23,17.5z"/>
			<path class="st1" d="M36.5,21.6c0.2,0.7,0.4,1.9,0.3,2.6v0c-0.2,0-1.6,0-3.3,0c-2.1,0-4.7,0-5.9,0c0,0.6,0.5,1.5,0.7,1.8
				c1.8,2,4.4,0.8,5.1-0.5l2.6,0.7c-0.1,0.5-0.9,1.3-1.2,1.6c-0.2,0.2-0.6,0.5-0.8,0.6c-1.8,1-4.1,1.1-5.9,0.4
				c-1.4-0.6-2.4-1.5-3-2.8c-0.7-1.4-0.8-3.2-0.3-4.9c0.9-2.7,3.7-4.7,7.4-3.9c0.8,0.2,1.5,0.5,2,0.9C35.3,19,36.1,20.2,36.5,21.6z
				 M33.6,22.3c0.1-0.6-0.4-1.6-0.9-2c-0.3-0.3-0.8-0.6-1.3-0.7c-0.7-0.2-1.5-0.2-2.1,0.1c-0.1,0-0.2,0.1-0.3,0.1
				c-0.2,0.1-0.5,0.3-0.6,0.5v0c-0.4,0.4-1,1.5-0.9,2.1v0L33.6,22.3L33.6,22.3z"/>
			<polygon class="st1" points="34.5,13.7 34.5,15.7 26.6,15.7 26.6,13.7 			"/>
			<path class="st0" d="M32.8,20.3c0.5,0.5,0.9,1.4,0.9,2h-6.1c-0.1-0.5,0.4-1.6,0.9-2.1c0.2-0.2,0.4-0.3,0.6-0.5
				c0.1,0,0.2-0.1,0.3-0.1c0.6-0.3,1.4-0.3,2.1-0.1C32,19.7,32.4,19.9,32.8,20.3z"/>
			<rect x="27.6" y="22.3" class="st1" width="6.1" height="0"/>
			<path class="st0" d="M33.5,24.2v1.4c-0.7,1.3-3.3,2.5-5.1,0.5c-0.3-0.3-0.7-1.2-0.7-1.8C28.8,24.3,31.4,24.3,33.5,24.2z"/>
			<path class="st1" d="M29.4,19.6c0.6-0.3,1.4-0.3,2.1-0.1C30.8,19.3,30,19.4,29.4,19.6z"/>
			<path class="st1" d="M28.5,20.2c0.2-0.2,0.4-0.3,0.6-0.5C28.9,19.9,28.6,20.1,28.5,20.2L28.5,20.2z"/>
			<path class="st1" d="M21.2,13.6c1.2,0.9,1.9,2.4,1.8,3.9c-0.1,1.2-0.6,2.2-1.4,2.9c-0.1,0.1-0.2,0.2-0.4,0.3
				c-0.1,0.1-0.3,0.2-0.5,0.3c0.4,0.3,0.9,0.1,2,1.3c1.3,1.4,1.5,4.6-0.5,6c-0.2,0.1-0.3,0.2-0.5,0.3l-0.5,0.2
				c-0.1,0.1-1,0.5-2.4,0.6c-0.9,0.1-1.9,0-2.8,0h-4.2c-0.3,0-1.1,0-1.4,0h0V13c0.9,0,8.6,0,8.6,0C19.9,13,20.6,13.1,21.2,13.6z
				 M20,25.9c0.4-0.6,0.5-1.3,0.3-2c-0.1-0.4-0.3-0.7-0.5-0.9c-0.5-0.5-0.9-0.6-1.7-0.6l-4.5,0h0l0,4.3h0c0.5,0,3.7,0,4.5,0
				C19,26.7,19.6,26.5,20,25.9z M19.7,18.6c0.2-0.5,0.2-1.1,0.1-1.6c0,0,0,0,0,0c-0.1-0.2-0.1-0.4-0.2-0.6v0
				c-0.2-0.3-0.4-0.5-0.6-0.6c0,0,0,0,0,0c-0.5-0.3-1.2-0.2-1.9-0.2c-0.9,0-2.5,0-3.4,0v0h0v0.2v4h2.8c0.7,0,1.6,0.1,2.2-0.1
				c0.2-0.1,0.4-0.2,0.5-0.3c0.1-0.1,0.3-0.3,0.4-0.4C19.6,18.8,19.6,18.7,19.7,18.6z"/>
			<path class="st1" d="M20.3,23.9c0.2,0.6,0.1,1.4-0.3,2C20.5,25.3,20.5,24.5,20.3,23.9z"/>
			<path class="st0" d="M20.3,23.9c0.2,0.6,0.1,1.4-0.3,2c-0.4,0.6-1,0.8-1.9,0.8c-0.8,0-4,0-4.5,0l0-4.3l4.5,0
				c0.8,0,1.2,0.1,1.7,0.6C20.1,23.2,20.2,23.5,20.3,23.9z"/>
			<path class="st1" d="M19.7,17.1c0.1,0.5,0.1,1.1-0.1,1.6C19.9,18.2,19.9,17.6,19.7,17.1z"/>
			<path class="st0" d="M19.7,17.1c0.1,0.5,0.1,1.1-0.1,1.6c0,0.1-0.1,0.2-0.1,0.3c-0.1,0.2-0.2,0.3-0.4,0.4
				c-0.2,0.1-0.3,0.2-0.5,0.3c-0.5,0.2-1.5,0.1-2.2,0.1l-2.8,0v-4v0v-0.2c0.9,0,2.5,0,3.4,0c0.7,0,1.3-0.1,1.9,0.2c0,0,0,0,0,0
				c0.2,0.1,0.4,0.3,0.6,0.6v0C19.6,16.7,19.7,16.9,19.7,17.1C19.7,17.1,19.7,17.1,19.7,17.1z"/>
			<path class="st1" d="M19.5,16.5c0.1,0.2,0.2,0.4,0.2,0.6C19.7,16.9,19.6,16.7,19.5,16.5z"/>
			<path class="st1" d="M19.5,18.9c-0.1,0.2-0.2,0.3-0.4,0.4C19.3,19.2,19.4,19.1,19.5,18.9z"/>
			<path class="st1" d="M18.9,15.9c0.2,0.1,0.4,0.3,0.6,0.6C19.3,16.2,19.1,16.1,18.9,15.9z"/>
			<path class="st1" d="M17,15.7c0.7,0,1.3-0.1,1.9,0.2C18.3,15.6,17.7,15.7,17,15.7z"/>
			<path class="st1" d="M17,15.7c-0.9,0-2.5,0-3.4,0v0C14.6,15.7,16.2,15.7,17,15.7z"/>
			<polygon class="st1" points="16.4,19.8 13.6,19.8 13.6,15.9 13.6,15.7 13.6,15.7 13.6,15.9 13.6,15.9 13.6,19.8 			"/>
			<polygon class="st1" points="13.6,22.4 13.6,26.7 13.6,26.7 13.6,22.4 			"/>
		</g>
		<g>
			<path class="st2" d="M18.8,41.6h12.7c0.1,0,0.2,0,0.3,0"/>
			<path class="st2" d="M31.7,41.5c1.3-0.1,3.2-0.4,4.4-1c2.6-1.1,5.1-3.3,6.4-5.9c0.5-0.9,0.8-1.8,1.1-2.8c0.6-1.9,0.5-3.7,0.5-5.7
				V13.8c0-2.6-0.8-5-2.1-7.1c-1.4-2.2-3.5-3.9-5.8-4.9c-2.6-1-3.7-1.1-6.6-1.1c-2.1,0-4.1,0-6.2,0s-4.1,0-6.1,0
				c-3.4,0-5.2-0.2-8.3,1C7,2.3,4.7,4.2,3.6,5.7C3.2,6,2.6,7.2,2.3,7.6c-0.6,1.2-0.8,1.7-1.2,3.2c-0.4,1.8-0.4,3.2-0.4,5.1v13.1
				c0,0.7,0.2,2.1,0.4,2.8c0.3,1.2,0.6,2,1.3,3.1c0.7,1.3,2.1,2.9,3.3,3.8l2,1.3c1.2,0.7,3.1,1.3,4.5,1.4c0.7,0.1,1.3,0.1,2.1,0.1
				h4.5C23.9,41.6,31.7,41.6,31.7,41.5z"/>
		</g>
	</g>
</g>
</svg>
