<?xml version="1.0" encoding="utf-8"?>
<!-- Generator: Adobe Illustrator 26.5.0, SVG Export Plug-In . SVG Version: 6.00 Build 0)  -->
<svg version="1.1" id="Слой_1" xmlns:xodm="http://www.corel.com/coreldraw/odm/2003"
	 xmlns="http://www.w3.org/2000/svg" xmlns:xlink="http://www.w3.org/1999/xlink" x="0px" y="0px" viewBox="0 0 44.4 44.4"
	 style="enable-background:new 0 0 44.4 44.4;" xml:space="preserve">
<style type="text/css">
	.st0{fill:#F082C9;}
	.st1{fill:#FFFFFF;}
	.st2{fill:none;stroke:#F082C9;stroke-miterlimit:10;}
</style>
<g id="Слой_x0020_1">
	<g id="XMLID_00000009584158608949018870000015096456710981828254_">
		<g>
			<path class="st0" d="M40,16.5c0.1,0.5,0,8.7,0,9.8c0,0.5,0,1.3,0,1.7c-0.1,0.5,0,1.2,0,1.7c-0.1,0.5,0,1.2-0.1,1.7
				c-0.2,2.5-0.6,4.5-2.4,6.2c-1.3,1.3-2.9,1.9-4.7,2.2c-0.2,0-0.5,0-0.8,0.1c-0.2,0-0.6,0.1-0.8,0.1l-1.7,0.1c-0.5,0.1-1.2,0-1.7,0
				C27.6,40,17,40,16.7,40c-0.5-0.1-1.2,0-1.7,0c-0.4-0.1-1.7,0-2.4-0.1c-0.3,0-0.6-0.1-0.8-0.1c-1.8-0.3-3.5-0.9-4.7-2.2
				c-0.7-0.7-1-1.1-1.4-2c-0.7-1.4-0.8-2.7-1-4.2c-0.1-0.5,0-1.2-0.1-1.7c-0.1-0.5,0-1.2,0-1.7c-0.1-0.5,0-1.1,0-1.7
				c0-0.9,0-9.3,0-9.7c0.1-0.5,0-1.2,0-1.7c0.1-0.5,0-1.2,0.1-1.7C4.8,11.1,5,9.5,6.2,7.9C6.9,6.8,7.9,6.1,9,5.5
				c1-0.5,3-0.9,4.3-0.9c0.1,0,0.3,0,0.4,0c0.2,0,0.2,0,0.4,0c0.3,0,0.6,0,0.9,0c0.5-0.1,1.1,0,1.7,0c0.3,0,10.8-0.1,11.2,0
				c0.5,0.1,1.2,0,1.7,0c0.2,0,0.5,0,0.8,0l1.2,0.1C34,4.8,36,5.3,37.7,7.1c0.1,0.1,0.1,0.1,0.2,0.2c1,1.2,1.6,2.7,1.8,4.2
				c0.1,0.5,0.1,1.1,0.2,1.6C39.9,13.7,39.9,16.2,40,16.5z M36.4,9.5c0-0.8-0.1-1.4-0.8-2c-1.3-1.3-3.5-0.8-4.2,0.8
				c-0.1,0.2-0.2,0.7-0.2,1c0,1.9,1.8,3.2,3.6,2.4c0.3-0.1,0.5-0.3,0.8-0.5C36,10.8,36.4,10.1,36.4,9.5z M31.9,28.1
				c2-3.2,2-7.8,0-11.1c-0.2-0.3-0.3-0.5-0.5-0.9c-0.6-0.9-1.8-2.1-2.7-2.7c-2-1.3-3.9-2-6.6-2c-1.6,0-3.4,0.5-4.5,1
				c-0.8,0.4-1,0.5-1.8,1c-1.3,0.9-2.4,2.2-3.2,3.6c-0.9,1.4-1.5,3.4-1.5,5.4l0,0c0,3.2,1.1,5.9,3.3,8c0.5,0.5,0.9,0.9,1.5,1.2
				c0.7,0.5,1,0.6,1.7,1c2.7,1.3,6.5,1.3,9.3,0c0.3-0.1,0.6-0.3,0.9-0.5c1.4-0.8,2.7-1.9,3.6-3.3C31.5,28.6,31.7,28.4,31.9,28.1z"/>
			<path class="st1" d="M35.6,7.4c0.7,0.6,0.8,1.2,0.8,2c0,0.6-0.4,1.4-0.8,1.7c-0.3,0.2-0.4,0.4-0.8,0.5c-1.8,0.7-3.6-0.6-3.6-2.4
				c0-0.3,0.1-0.8,0.2-1C32.1,6.6,34.3,6.1,35.6,7.4z"/>
			<path class="st1" d="M31.9,17c2,3.3,1.9,7.8,0,11.1c-0.2,0.3-0.3,0.5-0.5,0.8c-0.9,1.4-2.2,2.4-3.6,3.3c-0.3,0.2-0.6,0.3-0.9,0.5
				c-2.8,1.3-6.5,1.3-9.3,0c-0.8-0.4-1-0.5-1.7-1c-0.6-0.4-1-0.8-1.5-1.2c-2.2-2.2-3.3-4.8-3.3-8l0,0c0-2,0.6-4,1.5-5.4
				c0.8-1.4,1.9-2.7,3.2-3.6c0.7-0.5,1-0.6,1.8-1c1.1-0.5,2.8-1,4.5-1c2.7,0,4.6,0.7,6.6,2c0.9,0.6,2.1,1.8,2.7,2.7
				C31.6,16.5,31.7,16.7,31.9,17z M22.2,29.8c4,0,7.2-3.3,7.2-7.2s-3.3-7.2-7.2-7.2c-4,0-7.2,3.2-7.2,7.2S18.3,29.8,22.2,29.8z"/>
			<path class="st0" d="M29.5,22.5c0,4-3.2,7.2-7.2,7.2S15,26.5,15,22.5s3.2-7.2,7.2-7.2C26.2,15.3,29.5,18.5,29.5,22.5z"/>
		</g>
		<g>
			<path class="st2" d="M0.6,17.6v10.4l0.1,3c0,0.2,0,0.3,0,0.5c0,0.2,0,0.3,0,0.5c0,0.7,0.3,2.1,0.4,2.8c0.2,1,0.7,2.3,1.2,3.1
				c0.5,0.9,1.1,1.7,1.8,2.4l0.6,0.5c1.9,1.8,5.1,2.8,7.7,2.9c0.3,0,0.7,0,1,0c1.3,0.1,2.8,0.1,4.1,0.1h10.4l3-0.1
				c0.2,0,0.3,0,0.5,0l1.5-0.1c3.2-0.4,5.3-1.4,7.6-3.6c0.5-0.5,1.2-1.5,1.6-2.1c1.1-1.8,1.5-4.2,1.7-6.3c0-0.2,0-0.4,0-0.5
				c0.1-1.3,0.1-2.8,0.1-4.1V16.5l-0.1-3.1c0-0.2,0-0.3,0-0.5c-0.1-2-0.7-4.7-1.7-6.3c-2-3.4-5-5.2-9.1-5.8c-0.3,0-0.7-0.1-1-0.1
				c-1.8-0.1-3.2-0.2-5.2-0.2H16.5l-4.1,0.2c-0.3,0-0.7,0.1-1,0.1C8.6,1.2,6.2,2.3,4.2,4.2c-1.4,1.4-2.4,3.2-3,5.5
				c-0.2,0.6-0.4,2-0.4,2.7c0,0.2,0,0.3,0,0.5c0,0.2,0,0.4,0,0.5C0.6,14.7,0.6,16.2,0.6,17.6L0.6,17.6z"/>
		</g>
	</g>
</g>
</svg>
