<svg width="103" height="103" viewBox="0 0 103 103" fill="none" xmlns="http://www.w3.org/2000/svg">
<g clip-path="url(#clip0_143_511)">
<path fill-rule="evenodd" clip-rule="evenodd" d="M9.24877 61.0589C9.24877 58.9425 9.15257 38.906 9.29 37.9715C9.48239 36.7072 9.22128 35.223 9.39994 33.9587C9.57859 32.8043 9.44116 31.1964 9.5511 29.9871C9.94964 25.0948 10.568 21.3018 13.3028 17.344C15.0618 14.8016 17.3019 13.1113 19.9954 11.7646C22.4278 10.569 27.114 9.63447 30.1511 9.55201C30.4809 9.53827 30.8382 9.5795 31.168 9.55201C31.6078 9.52452 31.5941 9.45581 32.0751 9.44207C32.7897 9.41459 33.4493 9.4833 34.1364 9.3871C35.4282 9.19471 36.8849 9.4833 38.163 9.2909C38.8226 9.19471 63.9439 9.16722 64.7547 9.27716C65.9228 9.44207 67.5719 9.20845 68.7812 9.37336C69.3722 9.45581 69.9906 9.44207 70.7189 9.44207L73.6324 9.63447C79.5691 10.088 84.1591 11.3111 88.2406 15.5437C88.4605 15.7774 88.488 15.8736 88.6941 16.0934C91.154 18.8557 92.5008 22.4012 93.023 26.1529C93.2017 27.376 93.2841 28.6403 93.4216 29.8772C93.559 31.114 93.5727 37.1195 93.6827 37.8615C93.8751 39.0984 93.7376 58.6539 93.7376 61.0451C93.7376 62.1445 93.8476 64.041 93.6964 65.0305C93.504 66.2948 93.7651 67.779 93.5865 69.0433C93.4078 70.1976 93.5452 71.7918 93.4353 73.0149C92.9406 78.9516 91.9648 83.6928 87.7871 87.8842C84.7638 90.9076 80.9434 92.4467 76.5595 93.0514C75.9961 93.1339 75.4189 93.1751 74.7592 93.2713C74.3195 93.3263 73.33 93.4362 72.8215 93.4499L68.85 93.6011C67.5582 93.7935 66.1015 93.5049 64.8234 93.6973C64.1638 93.7935 39.0425 93.821 38.2317 93.7111C37.0636 93.5461 35.4145 93.7798 34.2051 93.6149C33.1332 93.4637 30.1374 93.5461 28.3921 93.2988C27.7462 93.2026 27.059 93.1476 26.5093 93.0652C22.1392 92.4467 18.2776 90.9763 15.2542 87.9255C13.6051 86.2764 12.8768 85.2044 11.8598 83.1706C10.1558 79.8036 9.97712 76.7665 9.56485 73.0973C9.42742 71.8467 9.59233 70.3351 9.42742 69.112C9.27625 67.9576 9.49613 66.2948 9.31748 65.0992C9.12509 63.8349 9.26251 62.3507 9.26251 61.0314L9.24877 61.0589ZM7.06194e-05 40.4314V65.0717L0.288663 72.3277C0.32989 72.7263 0.288663 73.1248 0.302406 73.5233C0.316148 74.0318 0.398603 74.1417 0.398603 74.7327C0.426088 76.368 1.05824 79.7762 1.42929 81.3428C1.97899 83.679 3.1471 86.7299 4.21902 88.5988C5.48333 90.7976 6.85758 92.6117 8.61662 94.3569L9.92215 95.5663C14.4847 99.8402 21.9606 102.273 28.1584 102.575C28.928 102.616 29.7526 102.616 30.5634 102.685C33.628 102.946 37.146 102.987 40.4305 102.987H65.0708L72.3268 102.699C72.7253 102.657 73.1239 102.699 73.5224 102.685L77.013 102.355C84.5714 101.366 89.6836 99.0294 94.9745 93.766C96.2663 92.4742 97.8054 90.2205 98.7262 88.6675C101.31 84.2974 102.272 78.7867 102.684 73.7157C102.725 73.3034 102.657 72.8362 102.698 72.4239C102.945 69.3593 103 65.8413 103 62.5568V37.9165L102.711 30.6605C102.67 30.2619 102.711 29.8634 102.698 29.4649C102.56 24.7512 101.062 18.361 98.7674 14.3894C94.0537 6.21258 86.7702 2.00738 77.0955 0.646874C76.3809 0.550676 75.4876 0.440736 74.8279 0.399509C70.5266 0.193371 67.1596 0.000976562 62.5559 0.000976562H37.9156L28.2546 0.399509C27.5675 0.426994 26.6743 0.536934 25.9734 0.633131C18.9922 1.55388 13.2753 3.97256 8.61662 8.63126C5.15351 12.0944 2.83102 16.1209 1.44303 21.6729C1.07199 23.1571 0.43983 26.5377 0.398603 28.1731C0.38486 28.709 0.343633 28.874 0.302406 29.2862C0.261178 29.6985 0.32989 30.1658 0.288663 30.578C0.0412981 33.6426 -0.0136719 37.1607 -0.0136719 40.4451L7.06194e-05 40.4314Z" fill="#E57E9E"/>
<path fill-rule="evenodd" clip-rule="evenodd" d="M34.3014 52.1809C34.3014 42.7124 42.0385 34.9753 51.507 34.9753C60.9619 34.9753 68.7126 42.7124 68.7126 52.1809C68.7126 61.6495 60.9756 69.3865 51.507 69.3865C42.0385 69.3865 34.3014 61.6495 34.3014 52.1809ZM25.0527 51.7824C25.0527 59.437 27.6776 65.731 32.8172 70.8707C33.9166 71.9701 34.9748 72.9459 36.2941 73.8391C37.9844 74.966 38.6028 75.3233 40.4443 76.2303C46.9583 79.4461 55.9734 79.4048 62.5148 76.2578C63.2706 75.9005 63.9303 75.5844 64.6311 75.1584C67.9156 73.1657 71.0076 70.6096 73.1515 67.3939C73.605 66.7068 73.976 66.1433 74.402 65.4287C79.0333 57.7054 79.1844 46.8214 74.4845 39.0569C74.031 38.3148 73.6737 37.7513 73.1927 37.023C71.7772 34.8791 68.8501 31.952 66.72 30.5228C61.9788 27.3482 57.5262 25.7129 51.1085 25.7129C47.2606 25.7129 43.1379 26.826 40.513 28.0903C38.6853 28.9699 38.0394 29.3684 36.3628 30.4815C33.2433 32.5567 30.536 35.7174 28.612 38.9194C26.5782 42.3138 25.0665 47.11 25.0665 51.7687L25.0527 51.7824Z" fill="#E57E9E"/>
<path fill-rule="evenodd" clip-rule="evenodd" d="M72.7253 20.5736C72.7253 24.9849 77.0542 28.1594 81.3694 26.4004C82.1802 26.0706 82.565 25.7133 83.1971 25.2048C84.1866 24.4215 85.1073 22.5525 85.1073 21.1782C85.1073 19.1718 84.86 17.8663 83.3208 16.3271C80.1738 13.1801 74.9379 14.3482 73.3025 18.1274C73.0414 18.7321 72.7253 19.7628 72.7253 20.5736Z" fill="#E57E9E"/>
</g>
<defs>
<clipPath id="clip0_143_511">
<rect width="103" height="103" fill="white"/>
</clipPath>
</defs>
</svg>
