<svg width="102" height="103" viewBox="0 0 102 103" fill="none" xmlns="http://www.w3.org/2000/svg">
<g clip-path="url(#clip0_143_502)">
<path fill-rule="evenodd" clip-rule="evenodd" d="M49.8706 24.4068H49.2991L49.0542 24.4885L48.714 24.5021L48.4555 24.4885L48.129 24.5838L47.8024 24.5702L47.5031 24.679L47.3942 24.6382L47.0405 24.7879L46.9588 24.7471L46.7411 24.856L46.5098 24.8832L46.4146 24.8424L46.1289 24.9649L45.9384 25.0602H45.7479L45.7071 25.0466C45.7071 25.1963 45.7343 25.1418 45.5438 25.1282L45.3941 25.1555L45.3125 25.1282L45.1084 25.2371L45.0268 25.2099L44.8227 25.3188L44.673 25.3052L44.4689 25.4005L44.3193 25.5094L44.1696 25.4958L44.1152 25.4685L43.9247 25.6046L43.843 25.5774L43.6526 25.6999L43.5981 25.6863L43.4213 25.768H43.394C43.394 25.9041 43.4213 25.8633 43.2716 25.8633H43.1491H43.1219C43.1219 26.013 43.1491 25.9586 42.9586 25.9449L42.8498 25.9586L42.6865 26.0402H42.6593C42.6593 26.19 42.6865 26.1355 42.496 26.1355H42.4688C42.4688 26.2852 42.496 26.2308 42.3464 26.2444H42.2511C42.2919 26.3805 42.3055 26.3397 42.1559 26.3397H42.0334H42.0062C42.0062 26.4894 42.0334 26.435 41.8429 26.435H41.8157C41.8157 26.5847 41.8429 26.5302 41.6525 26.5302H41.6252C41.6252 26.68 41.6525 26.6255 41.4756 26.6255H41.4348C41.4348 26.7753 41.462 26.7208 41.2851 26.7208H41.2443C41.2443 26.8705 41.2715 26.8161 41.0946 26.8161H41.0538C41.0538 26.9658 41.081 26.925 40.9041 26.9114H40.8633C40.8633 27.0611 40.8905 27.0067 40.7136 27.0067H40.6864C40.6864 27.1564 40.7136 27.1019 40.5368 27.1156H40.5095C40.5095 27.2517 40.5368 27.2108 40.3871 27.1972C40.4143 27.3469 40.4279 27.2925 40.2646 27.2789H40.2238C40.2238 27.4286 40.251 27.3878 40.0877 27.3878H40.0469C40.0469 27.5375 40.0741 27.4831 39.9109 27.4967H39.8701C39.8701 27.6328 39.8973 27.592 39.7476 27.5784C39.7748 27.7281 39.7884 27.6736 39.6251 27.6736H39.5843C39.5843 27.8234 39.6251 27.7825 39.4619 27.7689C39.4891 27.9186 39.5027 27.8642 39.3394 27.8506H39.2986C39.2986 28.0139 39.3394 27.9595 39.1625 27.9595H39.1353C39.1353 28.1092 39.1625 28.0684 39.0129 28.0548C39.0401 28.1909 39.0537 28.15 38.904 28.15H38.8632C38.8632 28.2862 38.8904 28.2453 38.7543 28.2453C38.768 28.3814 38.7952 28.3406 38.6455 28.3406L38.4958 28.4087C38.4958 28.5584 38.5367 28.5176 38.387 28.5039C38.4142 28.6537 38.4278 28.5992 38.2645 28.5992H38.2237C38.2237 28.749 38.2645 28.7081 38.1013 28.6945C38.1149 28.8306 38.1421 28.7898 38.006 28.7762C38.0196 28.9123 38.0468 28.8715 37.8972 28.8715H37.8563C37.8563 29.0076 37.8972 28.9804 37.7475 28.9667C37.7611 29.1029 37.7883 29.062 37.6523 29.0484C37.6659 29.1845 37.6931 29.1437 37.5434 29.1437L37.4073 29.2254C37.4073 29.3751 37.4482 29.3343 37.2985 29.3207C37.3121 29.4568 37.3393 29.4159 37.2033 29.4023C37.2169 29.5384 37.2441 29.4976 37.108 29.484C37.1216 29.6201 37.1488 29.5793 36.9992 29.5929L36.7679 29.7562C36.7679 29.906 36.8087 29.8787 36.659 29.8651C36.6726 30.0012 36.6998 29.974 36.5638 29.9604C36.5774 30.0965 36.6046 30.0693 36.4685 30.0557C36.4821 30.1918 36.5093 30.1646 36.3733 30.151C36.3869 30.2871 36.4141 30.2599 36.278 30.2462C36.2916 30.3824 36.3189 30.3551 36.1828 30.3415C36.1964 30.4776 36.2236 30.4368 36.0875 30.4368C36.1012 30.5729 36.1284 30.5457 35.9923 30.5321C36.0059 30.6682 36.0331 30.641 35.8971 30.6274C35.9107 30.7635 35.9379 30.7363 35.8018 30.7227C35.8154 30.8588 35.8426 30.8316 35.7066 30.8179C35.7202 30.9541 35.7474 30.9268 35.6113 30.9132C35.6249 31.0493 35.6658 31.0221 35.5161 31.0085C35.5297 31.1446 35.5569 31.1174 35.4208 31.1038C35.4345 31.2399 35.4617 31.2127 35.3256 31.1991C35.3392 31.3352 35.3664 31.308 35.2304 31.2944C35.244 31.4305 35.2712 31.4032 35.1351 31.3896C35.1487 31.5258 35.1759 31.4985 35.0399 31.4849C35.0535 31.621 35.0807 31.5938 34.9446 31.5802C34.9582 31.7299 34.9991 31.6891 34.8358 31.6891L34.7541 31.8252C34.7541 31.9749 34.795 31.9477 34.6453 31.9341C34.6589 32.0702 34.6861 32.043 34.5501 32.0294C34.5637 32.1655 34.5909 32.1383 34.4548 32.1247C34.4684 32.2744 34.4956 32.2336 34.3596 32.2336L34.2779 32.3833C34.2779 32.533 34.3188 32.5058 34.1827 32.4922C34.1963 32.6283 34.2371 32.6011 34.1011 32.5875C34.1147 32.7372 34.1419 32.6964 34.0058 32.6964L33.9242 32.8461C33.9242 33.0094 33.965 32.9822 33.8289 32.955C33.8425 33.1047 33.8834 33.0639 33.7337 33.0639L33.6521 33.2136C33.6521 33.3633 33.6929 33.3361 33.5568 33.3225C33.5704 33.4722 33.5976 33.4314 33.4616 33.4314V33.4722C33.4616 33.6356 33.516 33.6083 33.3663 33.5947C33.3799 33.7445 33.4207 33.7172 33.2711 33.7172V33.7581C33.2711 33.9214 33.3255 33.9078 33.1758 33.8806C33.1894 34.0303 33.2303 34.0031 33.0806 34.0031V34.0439C33.0806 34.2073 33.135 34.18 32.9853 34.1664C32.999 34.3162 33.0262 34.2753 32.8901 34.2753V34.3162C32.8901 34.4795 32.9445 34.4523 32.7949 34.4387C32.8085 34.5884 32.8493 34.5612 32.6996 34.5612V34.602C32.6996 34.779 32.7404 34.7381 32.5908 34.7381V34.779C32.5908 34.9559 32.6452 34.9287 32.5091 34.9015C32.5227 35.0512 32.5636 35.024 32.4139 35.024V35.0648C32.4139 35.2418 32.4683 35.2009 32.305 35.2009V35.2418C32.305 35.4187 32.3595 35.3915 32.2098 35.3915V35.4323C32.2234 35.5957 32.2642 35.5821 32.1282 35.5548C32.1418 35.7046 32.1826 35.6773 32.0465 35.6773V35.7182C32.0329 35.8951 32.0873 35.8679 31.9513 35.8679V35.8951C31.9513 36.0721 32.0057 36.0448 31.856 36.0448V36.0721C31.856 36.2626 31.9105 36.2218 31.7608 36.2218V36.249C31.7608 36.426 31.8152 36.3988 31.6656 36.3988V36.426C31.6656 36.6165 31.72 36.5893 31.5703 36.5893V36.6165C31.5703 36.7935 31.6247 36.7663 31.4751 36.7663V36.8071L31.4615 36.916C31.4615 37.0657 31.5023 37.0249 31.3526 37.0249V37.0657C31.3662 37.2563 31.4206 37.2155 31.271 37.2155V37.2427C31.271 37.4332 31.339 37.406 31.1893 37.406V37.4332V37.5558C31.1893 37.7055 31.2302 37.6783 31.0805 37.6783V37.7055C31.0941 37.9097 31.1485 37.8688 30.9989 37.8688L31.0261 37.9233L30.89 38.1002L30.9036 38.1547C30.9172 38.3588 30.9716 38.3316 30.822 38.3316V38.3452V38.4677C30.822 38.6311 30.8628 38.5902 30.7267 38.5902V38.6175V38.74C30.7267 38.8897 30.7675 38.8625 30.6315 38.8625L30.6451 38.9169L30.5226 39.1075L30.5499 39.2028L30.4274 39.3933L30.4546 39.475L30.3322 39.6792L30.3594 39.72L30.373 39.8834L30.2505 40.0331L30.2777 40.1011L30.1689 40.3189L30.1961 40.387L30.0872 40.6184L30.1009 40.7681L29.992 40.9859L30.0056 41.1356L29.992 41.299L29.9104 41.4759L29.8968 41.6393L29.924 41.8162L29.8151 41.9932L29.8287 42.1293L29.7335 42.3879L29.7607 42.5513L29.7335 42.8779L29.6382 43.123L29.6518 43.436C29.6518 43.681 29.6927 43.7763 29.543 43.926L29.5838 44.2936C29.5974 44.6066 29.5702 45.083 29.4341 45.3008V47.084C29.5566 47.2881 29.5974 47.7782 29.5974 48.064L29.543 48.2682C29.6791 48.4451 29.6655 48.4451 29.6791 48.731L29.6655 49.0441L29.7471 49.3163L29.7335 49.466L29.8559 49.7383L29.8423 49.8744C29.992 49.8744 29.9376 49.8471 29.924 50.0377L29.9376 50.2011L29.924 50.3508L30.0328 50.555L30.0056 50.6366L30.1145 50.8408L30.0872 50.9225L30.2097 51.1267L30.1825 51.2083L30.3049 51.3989L30.2641 51.4806L30.4002 51.6711L30.3866 51.7256L30.4682 51.8889V51.9161C30.6179 51.9161 30.5635 51.8889 30.5499 52.0795V52.1067C30.6995 52.1067 30.6587 52.0795 30.6587 52.2156V52.3245V52.3653C30.8084 52.3653 30.7539 52.3381 30.7539 52.515V52.5559C30.9036 52.5559 30.8492 52.5287 30.8492 52.7056V52.7464C30.9989 52.7464 30.9444 52.7192 30.9444 52.8962V52.9234C31.0941 52.9234 31.0397 52.8962 31.0397 53.0731V53.1003C31.1757 53.1003 31.1349 53.0731 31.1213 53.2365C31.271 53.2092 31.2166 53.1956 31.2029 53.359V53.3998C31.3526 53.3998 31.3118 53.3726 31.3118 53.5359V53.5768C31.4479 53.5768 31.407 53.5495 31.407 53.6993C31.5567 53.672 31.5023 53.6584 31.5023 53.8218V53.8626C31.6519 53.8626 31.6111 53.8218 31.6111 53.9987L31.6792 54.1485C31.8288 54.1485 31.788 54.1076 31.7744 54.2573C31.9241 54.2301 31.8696 54.2165 31.8696 54.3799V54.4207C32.0193 54.4207 31.9785 54.3935 31.9649 54.5432C32.101 54.5296 32.0601 54.5024 32.0465 54.6385C32.1826 54.6249 32.1418 54.5976 32.1418 54.7474L32.2234 54.8971C32.3731 54.8971 32.3459 54.8563 32.3323 55.006C32.4683 54.9924 32.4411 54.9652 32.4275 55.1013C32.5772 55.0741 32.5227 55.0468 32.5363 55.2102L32.618 55.3463C32.7677 55.3463 32.7268 55.3055 32.7132 55.4552C32.8493 55.4416 32.8085 55.4143 32.7949 55.5505C32.9309 55.5369 32.8901 55.5096 32.8901 55.6594V55.7002C33.0262 55.7002 32.9853 55.673 32.9853 55.8227C33.135 55.7955 33.0806 55.7819 33.0806 55.9452V55.9724C33.2439 55.9724 33.1894 55.9452 33.1758 56.1358V56.163C33.3255 56.163 33.2847 56.1358 33.2711 56.3127L33.2847 56.4761L33.2711 56.5169C33.2983 56.5713 33.3799 56.4488 33.3799 56.8436C33.3799 57.143 33.2847 57.0886 33.2575 57.1294L33.2847 57.2928L33.1486 57.5786L33.1758 57.6467L33.0942 57.8372V57.9597L32.9853 58.1775V58.4089L32.8765 58.6267L32.8901 58.7084L32.8765 58.8717C32.8901 59.0623 32.9445 59.0351 32.7949 59.0351L32.8085 59.0759L32.7949 59.2392C32.8085 59.4298 32.8629 59.4026 32.7132 59.4026L32.7404 59.457L32.6044 59.7157L32.6316 59.7701L32.6452 59.9334L32.5227 60.0968L32.5363 60.1376L32.55 60.301L32.4275 60.4643L32.4411 60.5051L32.4547 60.6685L32.3323 60.8318L32.3459 60.8727L32.3595 61.036L32.237 61.1993V61.3218L32.169 61.5124L32.1554 61.6077C32.169 61.7982 32.2234 61.771 32.0737 61.771V61.7983C32.0737 61.9752 32.1282 61.948 31.9785 61.948V61.9888C31.9785 62.1522 32.0329 62.1249 31.8833 62.1113C31.8969 62.2474 31.9241 62.2202 31.8016 62.2066C31.8152 62.3427 31.8424 62.3155 31.7064 62.3019C31.72 62.438 31.7472 62.3972 31.6111 62.3972C31.6247 62.5469 31.6519 62.4924 31.4887 62.4924H31.4479C31.4479 62.6422 31.4751 62.5877 31.2982 62.5877H31.271C31.271 62.7511 31.2982 62.683 31.0805 62.6694L30.2369 62.683L30.0192 62.5605L29.9648 62.5741C29.7607 62.5877 29.8015 62.6422 29.8015 62.4924H29.7743C29.5838 62.4924 29.611 62.5605 29.611 62.3972H29.5838L29.4614 62.3836C29.3117 62.3836 29.3525 62.4244 29.3525 62.2747H29.3117C29.1348 62.2883 29.162 62.3427 29.162 62.1794H29.1212C28.9443 62.1794 28.9715 62.2338 28.9715 62.0841H28.9307C28.7538 62.0841 28.7811 62.1385 28.7811 61.9888H28.7538C28.577 62.0024 28.6042 62.0433 28.6042 61.8935H28.577C28.4001 61.9071 28.4273 61.9616 28.4409 61.8119C28.2776 61.8255 28.3184 61.8663 28.3184 61.7302H28.2776C28.1007 61.7302 28.128 61.7846 28.128 61.6213H28.0871C27.9239 61.6213 27.9375 61.6757 27.9647 61.526C27.815 61.5396 27.8422 61.5805 27.8422 61.4307H27.8014C27.6381 61.4307 27.679 61.4716 27.679 61.3218L27.5293 61.2538C27.366 61.2538 27.3932 61.2946 27.4068 61.1585C27.2572 61.1721 27.2844 61.2129 27.2844 61.0632H27.2436C27.0803 61.0632 27.1075 61.104 27.1211 60.9679C26.9714 60.9815 27.0123 61.0088 27.0123 60.8727L26.8626 60.791C26.7129 60.791 26.7401 60.8318 26.7537 60.6957C26.6177 60.7093 26.6449 60.7365 26.6585 60.614C26.5088 60.6276 26.5497 60.6549 26.5497 60.5187H26.5088C26.3456 60.5187 26.3728 60.5596 26.4 60.4235C26.2639 60.4371 26.2911 60.4779 26.3047 60.3282C26.1687 60.3418 26.1959 60.369 26.2095 60.2329C26.0734 60.2465 26.1006 60.2737 26.1143 60.1376C25.9782 60.1512 26.0054 60.1785 26.019 60.0423C25.8829 60.0559 25.9102 60.0832 25.9238 59.9471C25.7741 59.9607 25.8149 59.9879 25.8149 59.8382L25.4748 59.4979C25.3251 59.4979 25.3523 59.5387 25.3659 59.389C25.2299 59.4026 25.2571 59.4298 25.2707 59.2937C25.1346 59.3073 25.1618 59.3345 25.1754 59.1984C25.0394 59.212 25.0666 59.2392 25.0802 59.1031C24.9441 59.1167 24.9713 59.144 24.9849 59.0078C24.8489 59.0215 24.8897 59.0487 24.8897 58.9126C24.7536 58.9262 24.7945 58.9534 24.7809 58.8037L24.6992 58.6539C24.5495 58.6539 24.5904 58.6948 24.604 58.545C24.4679 58.5587 24.5087 58.5859 24.5223 58.4498C24.3863 58.4634 24.4271 58.4906 24.4407 58.3545C24.291 58.3681 24.3318 58.3953 24.3455 58.2456V58.2048C24.1958 58.2048 24.2366 58.2456 24.2502 58.0822C24.1142 58.0959 24.155 58.1231 24.1686 57.987C24.0325 58.0006 24.0733 58.0278 24.0733 57.8781V57.8372C23.9373 57.8372 23.9645 57.8645 23.9781 57.7283C23.842 57.742 23.8828 57.7692 23.8828 57.6194V57.5786C23.7468 57.5786 23.774 57.6058 23.7876 57.4561C23.6379 57.4833 23.6924 57.4969 23.6924 57.3336V57.2928C23.5427 57.2928 23.5835 57.32 23.5971 57.1703C23.4611 57.1975 23.5019 57.2111 23.5019 57.0478V57.0069C23.3522 57.0069 23.393 57.0341 23.4066 56.8844C23.257 56.9116 23.3114 56.9252 23.325 56.7619V56.7211C23.1753 56.7211 23.2161 56.7619 23.2161 56.585V56.5441C23.0665 56.5441 23.1209 56.5713 23.1209 56.408V56.3672C22.9848 56.3672 23.0257 56.3944 23.0393 56.2447C22.9032 56.2719 22.944 56.2855 22.944 56.1494V56.0541C22.7944 56.0813 22.8488 56.0949 22.8624 55.918V55.8908C22.6991 55.8908 22.7535 55.918 22.7671 55.741V55.7138C22.6039 55.7138 22.6583 55.741 22.6719 55.5505V55.5232C22.5222 55.5232 22.5631 55.5505 22.5767 55.3735V55.3327C22.4134 55.3327 22.4678 55.3599 22.4814 55.1829L22.4542 55.0741L22.359 54.9107V54.8835C22.2093 54.8835 22.2637 54.9107 22.2637 54.7201V54.6929C22.1004 54.6929 22.1685 54.7201 22.1685 54.5296V54.5024C22.0188 54.5024 22.0596 54.5296 22.0596 54.3799V54.2573V54.2301C21.8964 54.2301 21.9644 54.2573 21.978 54.0532L21.9916 53.9987L21.8555 53.8218L21.8964 53.7265L21.7739 53.5495L21.7875 53.4815C21.6378 53.4815 21.6923 53.5087 21.7059 53.3045L21.6923 53.2092L21.6106 53.0323V52.9098L21.4882 52.7056L21.5154 52.6239L21.3929 52.4198L21.4201 52.3789C21.2569 52.3789 21.3249 52.4062 21.3249 52.2156L21.2977 52.0522L21.3113 52.0114C21.1616 52.0114 21.216 52.0386 21.216 51.8481V51.6847L21.1072 51.5078L21.1208 51.3172L21.0256 51.1403V50.9497L21.0528 50.7864L20.9303 50.5141L20.9439 50.3508L20.8487 50.1058L20.8759 50.0105C20.7126 49.9152 20.7534 49.8608 20.7398 49.6566L20.7534 49.2618L20.6718 48.9896L20.699 48.8263C20.5493 48.6493 20.563 48.6357 20.5766 48.3635L20.5902 47.8734C20.4541 47.6965 20.4949 47.6965 20.4949 47.4106L20.5221 46.7845C20.3044 46.4578 20.3725 45.6139 20.3725 45.1511C20.3725 44.8652 20.3725 44.593 20.3861 44.3208C20.3997 43.9805 20.3861 43.8035 20.5085 43.5721L20.4677 43.2727L20.5085 42.6057L20.6038 42.3335L20.5766 42.1701C20.5902 41.8434 20.563 41.8571 20.7262 41.6393L20.6854 41.4487L20.8079 41.0676L20.7806 40.8906L20.8895 40.5912L20.8759 40.3598L20.9711 40.1148L20.9847 39.8289L21.0528 39.6247L21.0392 39.4886L21.1752 39.2164L21.1344 39.1211V38.9305L21.2297 38.7536V38.6039C21.2297 38.4133 21.1616 38.4405 21.3249 38.4405L21.3113 38.4269L21.2977 38.2636L21.4201 38.1002L21.3929 38.0322L21.5018 37.8144L21.4746 37.7327L21.597 37.5285V37.406L21.6787 37.2291V37.093L21.8011 36.9024L21.7739 36.8071L21.8827 36.6029L21.978 36.3988L21.9372 36.3171L22.0732 36.1401L22.0324 36.0585L22.1685 35.8815L22.1277 35.7998L22.2637 35.6229L22.2501 35.5548C22.2365 35.3643 22.1821 35.3915 22.3317 35.3915V35.3643L22.4134 35.2009L22.427 35.092C22.4134 34.9015 22.359 34.9287 22.5086 34.9287V34.9015C22.5086 34.7109 22.4542 34.7381 22.6039 34.7381V34.7109V34.5884C22.6039 34.4387 22.5631 34.4659 22.6991 34.4931V34.3978C22.7127 34.2481 22.6583 34.2753 22.808 34.2753V34.2481C22.7944 34.0575 22.7399 34.0848 22.9032 34.0848V34.0575C22.9032 33.867 22.8488 33.9078 22.9984 33.9078V33.8806C22.9984 33.69 22.944 33.7309 23.0937 33.7309V33.7036C23.0937 33.5267 23.0393 33.5539 23.1889 33.5539V33.5131L23.2842 33.3633V33.3225C23.2842 33.1455 23.2298 33.1728 23.3794 33.1728V33.1319C23.3794 32.955 23.325 32.9822 23.4747 32.9822V32.955C23.4747 32.7644 23.4202 32.8053 23.5699 32.8053V32.778C23.5699 32.6011 23.5155 32.6283 23.6651 32.6283V32.5875C23.6651 32.4105 23.6107 32.4377 23.7604 32.4377V32.3969C23.7604 32.2199 23.706 32.2472 23.8556 32.2472V32.2063C23.842 32.0294 23.8012 32.0702 23.9509 32.0702V32.0294C23.9373 31.866 23.8828 31.8797 24.0325 31.9069C24.0189 31.7572 23.9781 31.7844 24.1278 31.7844V31.7435C24.1278 31.5666 24.0869 31.6074 24.2366 31.6074V31.5666C24.2366 31.3896 24.1822 31.4169 24.3318 31.4441C24.3182 31.2807 24.2774 31.3216 24.4135 31.3216V31.2944C24.4135 31.1174 24.3727 31.1582 24.5223 31.1582V31.1174C24.5223 30.9541 24.4679 30.9813 24.6176 30.9949C24.604 30.8452 24.5632 30.8724 24.6992 30.8724V30.8316C24.6992 30.6682 24.6584 30.6954 24.8081 30.6954V30.6546C24.7945 30.4913 24.7536 30.5049 24.9033 30.5321C24.8897 30.3688 24.8489 30.4096 24.9986 30.4096V30.3688C24.9986 30.2054 24.9441 30.2326 25.0938 30.2462C25.0802 30.0965 25.0394 30.1237 25.189 30.1237V30.0829C25.1754 29.9196 25.1346 29.9332 25.2843 29.9604C25.2707 29.8107 25.2299 29.8379 25.3795 29.8379L25.4476 29.6882C25.4612 29.5384 25.4067 29.5657 25.5428 29.5793C25.5292 29.4295 25.502 29.4568 25.638 29.4568V29.4159C25.638 29.2526 25.5972 29.2798 25.7333 29.2934C25.7197 29.1437 25.6789 29.1709 25.8285 29.1709V29.1437C25.8285 28.9804 25.7741 29.0076 25.9238 29.0212C25.9102 28.8715 25.8693 28.8987 26.0054 28.9123C25.9918 28.7626 25.9646 28.8034 26.1006 28.8034L26.1823 28.6537C26.1959 28.5039 26.1415 28.5312 26.2775 28.5448C26.2639 28.3951 26.2367 28.4359 26.3728 28.4359V28.3951C26.3728 28.2317 26.3183 28.2589 26.468 28.2725C26.4544 28.1228 26.4136 28.15 26.5497 28.1773C26.536 28.0411 26.5088 28.0684 26.6449 28.082C26.6313 27.9323 26.6041 27.9731 26.7401 27.9731L26.8218 27.8234C26.8218 27.6736 26.781 27.7009 26.917 27.7145C26.9034 27.5784 26.8762 27.6056 26.9987 27.6192C26.985 27.4695 26.9578 27.5103 27.1075 27.5103L27.2708 27.2789C27.2708 27.1292 27.23 27.1564 27.3796 27.17C27.366 27.0339 27.3252 27.0611 27.4749 27.0747C27.4613 26.9386 27.434 26.9658 27.5701 26.9794C27.5565 26.8433 27.5293 26.8705 27.6654 26.8842C27.6517 26.7344 27.6245 26.7753 27.7742 26.7753L28.128 26.3533C28.128 26.2036 28.0871 26.2308 28.2368 26.2444C28.2232 26.1083 28.196 26.1355 28.3321 26.1491C28.3184 26.013 28.2912 26.0402 28.4273 26.0538C28.4137 25.9177 28.3865 25.9449 28.5225 25.9586C28.5089 25.8224 28.4817 25.8497 28.6178 25.8633C28.6042 25.7272 28.577 25.7544 28.713 25.768C28.6994 25.6319 28.6722 25.6591 28.8083 25.6727C28.7947 25.5366 28.7674 25.5638 28.9035 25.5774C28.8899 25.4413 28.8627 25.4685 28.9988 25.4821C28.9851 25.346 28.9579 25.3732 29.094 25.3869C29.0804 25.2507 29.0532 25.278 29.1892 25.2916C29.1756 25.1555 29.1484 25.1827 29.2845 25.1963C29.2709 25.0602 29.2437 25.0874 29.3797 25.101C29.3661 24.9649 29.3389 24.9921 29.475 25.0057C29.4614 24.856 29.4341 24.8968 29.5838 24.8968L29.8151 24.7199C29.8151 24.5702 29.7743 24.5974 29.924 24.611C29.9104 24.4749 29.8832 24.5021 30.0192 24.5157C30.0056 24.3796 29.9784 24.4204 30.1145 24.4204C30.1008 24.2843 30.0736 24.3251 30.2097 24.3251C30.1961 24.189 30.1689 24.2162 30.3049 24.2299C30.2913 24.0937 30.2641 24.1346 30.4138 24.121L30.6451 23.944C30.6451 23.7943 30.6043 23.8215 30.7539 23.8351C30.7403 23.699 30.7131 23.7398 30.8492 23.7535C30.8356 23.6173 30.8084 23.6582 30.9444 23.6582C30.9308 23.5221 30.9036 23.5629 31.0533 23.5629L31.2029 23.4812C31.2029 23.3315 31.1621 23.3723 31.3118 23.3723C31.2982 23.2362 31.271 23.277 31.407 23.2907C31.3934 23.1409 31.3662 23.1954 31.5159 23.1954H31.5567C31.5567 23.0456 31.5159 23.0865 31.6792 23.1001C31.6519 22.964 31.6383 23.0048 31.7744 23.0184C31.7608 22.8823 31.7336 22.9231 31.8833 22.9231L32.0329 22.8415C32.0329 22.7053 31.9921 22.7326 32.1418 22.7462C32.1282 22.6101 32.101 22.6509 32.2506 22.6509H32.2914C32.2914 22.5012 32.2642 22.542 32.4139 22.5556C32.3867 22.4195 32.3731 22.4603 32.5091 22.4739C32.4819 22.3242 32.4683 22.3787 32.6316 22.3787H32.6724C32.6724 22.2289 32.6316 22.2698 32.7949 22.2834C32.7813 22.1473 32.754 22.1881 32.9037 22.1881H32.9445C32.9445 22.052 32.9173 22.0928 33.067 22.0928C33.0534 21.9567 33.0262 21.9975 33.1758 21.9975H33.2167C33.2167 21.8614 33.1894 21.8886 33.3391 21.9023C33.3119 21.7661 33.2983 21.807 33.4616 21.807H33.5024C33.5024 21.6572 33.4752 21.6981 33.6248 21.7117C33.5976 21.5756 33.584 21.6164 33.7473 21.6164H33.7881C33.7881 21.4667 33.7609 21.5211 33.9106 21.5211C33.8834 21.385 33.8697 21.4258 34.033 21.4258H34.0738C34.0738 21.2897 34.0466 21.3306 34.1963 21.3306C34.1827 21.1808 34.1555 21.2353 34.3187 21.2489H34.3596C34.3596 21.0992 34.3324 21.14 34.4956 21.14H34.5364C34.5364 21.0039 34.5092 21.0447 34.6589 21.0583C34.6317 20.9086 34.6181 20.963 34.7814 20.9767H34.8086C34.8086 20.8269 34.7814 20.8678 34.9582 20.8678H34.9855C34.9855 20.7316 34.9582 20.7725 35.1079 20.7725C35.0807 20.6228 35.0671 20.6772 35.2304 20.6908H35.2712C35.2712 20.5411 35.244 20.5819 35.4072 20.5955H35.4481C35.4481 20.4458 35.4208 20.5002 35.5841 20.5002H35.6249C35.6249 20.3505 35.5977 20.405 35.7746 20.405H35.8154C35.8154 20.2688 35.7882 20.3097 35.9379 20.3233C35.9107 20.1872 35.8835 20.228 36.0331 20.228H36.1284C36.1012 20.0919 36.0739 20.1327 36.2236 20.1327H36.3189C36.278 19.983 36.2644 20.0374 36.4549 20.0511H36.4821C36.4821 19.8877 36.4549 19.9422 36.6318 19.9558H36.6726C36.6726 19.806 36.6454 19.8469 36.8223 19.8605H36.8631C36.8631 19.7244 36.8223 19.7516 36.9719 19.7516H37.0672C37.04 19.6155 37.0264 19.6563 37.1624 19.6563L37.2713 19.6427H37.2985C37.2985 19.493 37.2713 19.5474 37.4482 19.5474H37.4754C37.4754 19.3977 37.4482 19.4521 37.6386 19.4521H37.6659C37.6659 19.3024 37.6386 19.3569 37.8291 19.3569L37.8563 19.3705C37.8563 19.2207 37.8291 19.2752 38.0196 19.2752H38.0468C38.0468 19.1255 38.0196 19.1799 38.1965 19.1799L38.3053 19.1663L38.4686 19.071H38.5094C38.5094 18.9213 38.4822 18.9757 38.6727 18.9893H38.6999C38.6999 18.8532 38.6727 18.8941 38.8224 18.8941L38.9448 18.8805H38.972C38.972 18.7307 38.9448 18.7852 39.1353 18.7988H39.1625C39.1625 18.6627 39.1353 18.7035 39.285 18.6899H39.4074H39.4211C39.4211 18.5402 39.3938 18.5946 39.5979 18.6082L39.6524 18.6218L39.8292 18.4857L39.8837 18.4993C39.8837 18.3496 39.8564 18.404 40.0605 18.4177L40.1694 18.404L40.3327 18.3224L40.4415 18.3088L40.6184 18.2271H40.6456C40.6456 18.091 40.6184 18.1318 40.7681 18.1318H40.9041L40.9585 18.1454L41.149 18.0229L41.2307 18.0501L41.4348 17.9276L41.5028 17.9549L41.7069 17.8323L41.8429 17.846L42.047 17.7371L42.1287 17.7643L42.3328 17.6554L42.4824 17.669L42.6865 17.5601H42.8226L43.0131 17.4921L43.0675 17.5057L43.2172 17.3832L43.3804 17.3968L43.4213 17.4104L43.5981 17.2879L43.7614 17.3015L43.8022 17.3151L43.9927 17.1926L44.1832 17.2062L44.3601 17.0973H44.5642L44.7138 17.1245L44.9996 17.002L45.0812 17.0293L45.3261 16.934H45.5166L45.7071 16.8523L45.9928 16.8115L46.1833 16.8387L46.4826 16.7298L46.7548 16.757L47.1221 16.6209L47.3126 16.6617L47.7072 16.5392L47.9657 16.5665C48.197 16.4303 48.1154 16.4576 48.4419 16.444L48.7957 16.4848L49.4352 16.3487L49.7209 16.3895C49.7889 16.3487 49.6801 16.3623 49.9114 16.2942C49.9386 16.2806 50.0474 16.267 50.0883 16.267C50.2651 16.2398 50.3876 16.2534 50.5509 16.2534L51.1903 16.2942C51.6666 16.0084 54.0749 16.1989 54.6871 16.1717C55.0273 16.1717 54.932 16.1445 55.1906 16.267L55.8709 16.2534C56.211 16.2534 56.211 16.2262 56.4695 16.3623L56.7417 16.3214C57.0682 16.3351 57.1498 16.3078 57.3675 16.4712L57.5036 16.4167C57.626 16.4303 57.6941 16.4167 57.8438 16.4576C58.1567 16.5392 57.9118 16.4848 58.0342 16.5665L58.2655 16.5392L58.4968 16.5256L58.7554 16.6481L58.8506 16.6209L59.1499 16.7298H59.3812L59.6262 16.8251H59.9391L60.2384 16.9204L60.5242 17.0293L60.701 16.9884L60.9732 17.1245L61.0684 17.0837L61.3405 17.2198L61.4494 17.179L61.7079 17.3151L61.8712 17.2879L62.0889 17.3968L62.1297 17.3832L62.293 17.3695L62.429 17.5057L62.5243 17.4784L62.7147 17.6009L62.81 17.5737L63.0005 17.6826L63.0957 17.6554L63.2862 17.7779L63.3678 17.7507L63.5583 17.8732L63.64 17.846L63.8304 17.9685L63.9121 17.9412L64.089 18.0774L64.1706 18.0365L64.3611 18.159L64.4155 18.1454L64.5924 18.2271L64.6876 18.2407C64.8781 18.2271 64.8509 18.1726 64.8509 18.3224H64.8781H65.0006C65.1502 18.3224 65.123 18.2815 65.123 18.4177H65.1502L65.3135 18.4993H65.3407H65.4632C65.6129 18.4993 65.5856 18.4585 65.5856 18.6082H65.6129C65.8169 18.5946 65.7761 18.5402 65.7761 18.7035H65.8033C65.9938 18.7035 65.9666 18.6354 65.9666 18.7988H65.9938L66.1027 18.8124C66.2523 18.8124 66.2251 18.7716 66.2251 18.9213H66.2523C66.4428 18.9077 66.4156 18.8532 66.4156 19.0166H66.4428C66.6197 19.0166 66.5925 18.9621 66.5925 19.1119H66.6333L66.783 19.2071H66.8238L66.9735 19.3024H67.0007C67.1912 19.3024 67.164 19.248 67.164 19.3977H67.1912L67.3 19.4113C67.4497 19.4113 67.4225 19.3841 67.3953 19.5066C67.5585 19.493 67.5313 19.4521 67.5313 19.5883H67.5585C67.7354 19.5883 67.7082 19.5338 67.7082 19.6835H67.7354C67.9123 19.6835 67.8851 19.6291 67.8851 19.7788H67.9259C68.1028 19.7788 68.0756 19.7244 68.0756 19.8741H68.1164C68.2933 19.8741 68.266 19.8333 68.266 19.9694H68.3069C68.4837 19.9694 68.4565 19.9149 68.4565 20.0647H68.4974C68.6742 20.0647 68.6606 20.0102 68.6198 20.1463H68.715C68.8511 20.1463 68.8375 20.1191 68.8103 20.2416C68.9736 20.228 68.9327 20.1872 68.9327 20.3233H68.96C69.1368 20.3233 69.096 20.2688 69.096 20.4322H69.1368C69.3001 20.4322 69.2865 20.3777 69.2593 20.5139C69.409 20.5002 69.3818 20.4594 69.3818 20.5955H69.4226C69.5858 20.5955 69.5586 20.5547 69.5586 20.7044H69.5994C69.7627 20.7044 69.7491 20.65 69.7219 20.7997C69.8716 20.7861 69.8444 20.7453 69.8444 20.895H69.8852C70.0485 20.895 70.0348 20.8405 70.0076 20.9903C70.1573 20.9767 70.1301 20.9358 70.1301 21.0856H70.1709C70.3478 21.0856 70.307 21.0447 70.307 21.1944L70.4566 21.2625C70.6063 21.2761 70.5791 21.2217 70.5791 21.3714L70.7288 21.4531C70.892 21.4531 70.8648 21.4122 70.8512 21.5484C71.0009 21.5347 70.9737 21.4939 70.9737 21.6436H71.0009C71.1642 21.6436 71.1369 21.6028 71.1233 21.7389C71.273 21.7253 71.2458 21.6845 71.2458 21.8342H71.2866C71.4499 21.8342 71.4227 21.7798 71.4091 21.9295C71.5451 21.9159 71.5315 21.875 71.5043 22.0112C71.654 21.9975 71.6132 21.9703 71.6132 22.1064H71.654C71.8036 22.1064 71.7764 22.0656 71.7628 22.2017C71.9125 22.1881 71.8717 22.1609 71.8717 22.297L72.0213 22.3787C72.171 22.3787 72.1574 22.3378 72.1302 22.4739C72.2663 22.4603 72.2526 22.4195 72.2254 22.5556C72.3751 22.542 72.3343 22.5012 72.3343 22.6509L72.4703 22.7326C72.62 22.7326 72.5928 22.6917 72.5792 22.8279C72.7153 22.8142 72.688 22.787 72.6744 22.9231C72.8105 22.9095 72.7833 22.8823 72.7697 23.0048C72.9193 22.9912 72.8785 22.964 72.8785 23.1001L73.0146 23.1818C73.1779 23.1818 73.1507 23.1409 73.1234 23.2907C73.2595 23.277 73.2323 23.2362 73.2187 23.3859C73.3547 23.3723 73.3275 23.3451 73.3139 23.4812C73.45 23.4676 73.4228 23.4404 73.4092 23.5765C73.5452 23.5629 73.518 23.5357 73.518 23.6718L73.7493 23.8487C73.9126 23.8487 73.8718 23.8079 73.8582 23.9576C73.9942 23.944 73.967 23.9032 73.9534 24.0529C74.0895 24.0393 74.0623 23.9985 74.0487 24.1482C74.1847 24.1346 74.1575 24.1074 74.1439 24.2435C74.28 24.2299 74.2527 24.2026 74.2391 24.3388C74.3752 24.3388 74.348 24.2979 74.3344 24.434C74.4704 24.4204 74.4432 24.3932 74.4296 24.5293C74.5657 24.5157 74.5385 24.4885 74.5249 24.6246C74.6609 24.611 74.6337 24.5838 74.6201 24.7199C74.7562 24.7063 74.729 24.6791 74.7154 24.8152C74.8514 24.8016 74.8242 24.7743 74.8106 24.9104C74.9467 24.8968 74.9194 24.8696 74.9058 25.0057C75.0419 24.9921 75.0011 24.9649 75.0011 25.101C75.1371 25.0874 75.1099 25.0602 75.0963 25.1963C75.2324 25.1827 75.2052 25.1555 75.1916 25.2916C75.3276 25.278 75.3004 25.2507 75.2868 25.3869C75.4229 25.3732 75.3957 25.3324 75.3821 25.4821C75.5317 25.4685 75.4773 25.4413 75.4909 25.591L75.7494 25.9177C75.8991 25.9177 75.8719 25.8769 75.8583 26.0266C75.9943 26.013 75.9535 25.9858 75.9535 26.1219C76.0896 26.1083 76.0624 26.0811 76.0488 26.2172C76.1848 26.2036 76.1576 26.1763 76.1304 26.3125C76.2801 26.2852 76.2392 26.2716 76.2256 26.4214L76.3073 26.5575C76.4569 26.5575 76.4161 26.5166 76.4161 26.6664C76.5522 26.6528 76.5114 26.6255 76.4978 26.7616C76.6338 26.748 76.593 26.7208 76.593 26.8705L76.6746 27.0067C76.8243 27.0067 76.7835 26.9658 76.7699 27.1156C76.9059 27.1019 76.8651 27.0747 76.8515 27.2108C77.0012 27.1972 76.9468 27.17 76.9468 27.3197L77.0284 27.4695C77.1781 27.4695 77.1372 27.4286 77.1236 27.5784C77.2597 27.5647 77.2189 27.5375 77.2189 27.6872V27.7281C77.3549 27.7281 77.3277 27.7009 77.3141 27.8506C77.4502 27.837 77.4094 27.8097 77.3958 27.9459C77.5454 27.9323 77.491 27.905 77.491 28.0548V28.0956C77.6407 28.0956 77.5999 28.0548 77.5863 28.2181C77.7359 28.1909 77.6815 28.1773 77.6815 28.3406V28.3814C77.8312 28.3814 77.7903 28.3542 77.7767 28.5039C77.9128 28.4767 77.872 28.4631 77.872 28.6128L77.94 28.7626C78.0897 28.7626 78.0489 28.7217 78.0489 28.8851V28.9259C78.1849 28.9259 78.1441 28.8987 78.1441 29.0484C78.2938 29.0212 78.2393 29.0076 78.2393 29.1709V29.2118C78.389 29.2118 78.3482 29.1845 78.3346 29.3343C78.4843 29.307 78.4298 29.2934 78.4298 29.4568V29.4976C78.5795 29.4976 78.5251 29.4704 78.5387 29.6337V29.6746C78.6747 29.6746 78.6339 29.6473 78.6203 29.7971C78.7564 29.7698 78.7156 29.7562 78.7156 29.9196V29.9604C78.8652 29.9604 78.8108 29.9332 78.8244 30.0965V30.1374C78.9605 30.1374 78.9197 30.1101 78.906 30.2599C79.0557 30.2326 79.0013 30.219 78.9877 30.3824V30.4232C79.151 30.4232 79.0965 30.396 79.0965 30.5729V30.6002C79.2462 30.6002 79.2054 30.5729 79.1918 30.7499V30.7771C79.3414 30.7771 79.287 30.7499 79.287 30.9268V30.9677C79.4367 30.9677 79.3823 30.9404 79.3823 31.1174V31.1582L79.4775 31.308V31.3488L79.5727 31.4985V31.5394C79.7224 31.5394 79.668 31.5121 79.668 31.6891V31.7163C79.8176 31.7163 79.7632 31.6891 79.7632 31.866V31.8933C79.9129 31.8933 79.8585 31.866 79.8585 32.0566V32.0838C80.0081 32.0838 79.9537 32.0566 79.9537 32.2472V32.2744C80.1034 32.2744 80.049 32.2472 80.049 32.4377V32.465C80.1986 32.465 80.1442 32.4377 80.1442 32.6147V32.6419C80.3075 32.6419 80.2394 32.6147 80.2394 32.8053L80.2531 32.9142L80.3347 33.0775V33.1047C80.4844 33.1047 80.4299 33.0775 80.4163 33.2681V33.2953C80.566 33.2953 80.5252 33.2544 80.5252 33.4178V33.5403V33.5539C80.6884 33.5539 80.6204 33.5267 80.6068 33.7309L80.5932 33.7581C80.7429 33.7581 80.7021 33.7172 80.7021 33.8806V34.0167L80.6884 34.0711L80.8245 34.2617L80.8109 34.3162C80.9606 34.3162 80.9061 34.2889 80.8925 34.4931L80.9061 34.5884L80.9878 34.7653L81.0014 34.8606L81.083 35.0376V35.1601L81.2055 35.3643L81.1783 35.4459L81.3007 35.6501L81.2735 35.7182L81.3824 35.936L81.3688 36.0721L81.4776 36.2899L81.4504 36.4532L81.5728 36.7254L81.6545 36.9568V37.1474L81.7361 37.3107L81.7497 37.4741L81.7361 37.6238L81.8314 37.8552L81.8178 38.0866L81.9266 38.3861L81.8858 38.495C82.0491 38.6991 81.981 38.5494 82.0218 38.8625L81.981 39.053C82.1443 39.2164 82.1307 39.23 82.1171 39.5022L82.0899 40.0059C82.1035 40.0331 82.1171 40.0603 82.1307 40.0739C82.1443 40.0875 82.1579 40.1148 82.1579 40.142L82.2259 40.6592L82.1715 40.9587C82.4164 41.3398 82.362 44.2119 82.1851 44.5658L82.2123 45.6275C82.2259 45.8725 82.2532 46.1584 82.0899 46.2945L82.1171 46.4578L82.1443 46.7981C82.1307 47.084 82.1443 47.1792 81.9946 47.3698L82.0218 47.4515L82.0491 47.7101L81.913 48.1321L81.9266 48.2954L81.845 48.5676L81.8586 48.8943L81.7361 49.2618L81.7497 49.6021L81.6409 49.9016V50.2147L81.5592 50.4733L81.5728 50.7047L81.4776 51.0041V51.2628L81.396 51.4806L81.2871 51.7664L81.3143 52.0114L81.1783 52.2836L81.2055 52.447L81.0966 52.6784L81.1102 52.8281L81.0014 53.0459L81.015 53.1276L80.9061 53.3454L80.9198 53.4951L80.8109 53.7129L80.8381 53.7945L80.8109 53.9443C80.8109 54.1348 80.8789 54.1076 80.7293 54.1076L80.7429 54.1621L80.7157 54.3254C80.7293 54.516 80.7837 54.4751 80.6204 54.4751L80.634 54.516L80.5252 54.7201L80.5388 54.761L80.5524 54.9243L80.4435 55.0741L80.3483 55.2782V55.4007L80.2667 55.5777L80.2531 55.6866L80.1714 55.8635L80.1578 55.9588L80.0762 56.1358L80.0626 56.2311C80.0762 56.4352 80.1306 56.408 79.9809 56.408L79.9945 56.4624L79.8585 56.653L79.8993 56.7347L79.7632 56.9116L79.7768 56.9661C79.7904 57.1703 79.8449 57.143 79.6952 57.143V57.1567V57.2792C79.6952 57.4289 79.736 57.4017 79.6 57.4017V57.4289L79.5183 57.5922L79.5047 57.7011C79.5183 57.8917 79.5727 57.8645 79.4231 57.8645V57.8917L79.3414 58.055V58.0822L79.3278 58.2048C79.3278 58.3545 79.3687 58.3273 79.219 58.3273V58.3545C79.219 58.545 79.287 58.5178 79.1237 58.5178V58.545C79.1237 58.7356 79.1782 58.7084 79.0285 58.7084V58.7356L79.0149 58.8581C79.0149 59.0078 79.0557 58.967 78.906 58.967V59.0078C78.9197 59.1984 78.9741 59.1576 78.8108 59.1576V59.1848C78.8108 59.3617 78.8652 59.3345 78.7156 59.3345V59.3754C78.7156 59.5523 78.77 59.5251 78.6203 59.5251V59.5523C78.6203 59.7293 78.6747 59.702 78.5251 59.702V59.7429C78.5251 59.9198 78.5795 59.8926 78.4298 59.8926V59.9198C78.4298 60.1104 78.4843 60.0696 78.3346 60.0696V60.0968C78.3346 60.2873 78.389 60.2601 78.2393 60.2601V60.2873C78.2393 60.4643 78.2938 60.4371 78.1441 60.4371V60.4779C78.1441 60.6549 78.1985 60.6276 78.0489 60.6276V60.6685C78.0489 60.8454 78.1033 60.8182 77.9536 60.8182V60.859C77.9536 61.036 78.008 61.0088 77.8584 61.0088V61.0496C77.8584 61.2266 77.9128 61.1857 77.7495 61.1857V61.2266C77.7631 61.4035 77.8176 61.3899 77.6679 61.3491C77.6815 61.5124 77.7223 61.4852 77.5863 61.4852V61.5124C77.5863 61.6894 77.6271 61.6621 77.4774 61.6621V61.6894C77.4774 61.8663 77.5318 61.8391 77.3686 61.8391V61.8799C77.3822 62.0433 77.423 62.016 77.2733 62.0024C77.2869 62.1522 77.3277 62.1249 77.1917 62.1249V62.1658C77.1917 62.3291 77.2325 62.3019 77.0828 62.3019V62.3427C77.0828 62.5061 77.1372 62.4924 76.9876 62.4652C77.0012 62.615 77.042 62.5877 76.8923 62.5877V62.6286C76.8923 62.7919 76.9468 62.7783 76.7971 62.7511C76.8107 62.9008 76.8515 62.8736 76.7019 62.8736V62.9144C76.7019 63.0778 76.7427 63.0505 76.6066 63.0369C76.6202 63.1866 76.661 63.1594 76.5114 63.1594V63.2003C76.5114 63.3636 76.5522 63.3228 76.4025 63.3228L76.3345 63.4725C76.3209 63.6358 76.3753 63.595 76.2256 63.595L76.1576 63.7447C76.1576 63.9081 76.1984 63.8808 76.0624 63.8672C76.076 64.017 76.1168 63.9897 75.9671 63.9897V64.0306C75.9671 64.1939 76.0079 64.1667 75.8719 64.1531C75.8855 64.3028 75.9127 64.262 75.7766 64.262L75.695 64.4117C75.695 64.5614 75.7358 64.5342 75.5998 64.5206C75.6134 64.6703 75.6406 64.6295 75.5045 64.6295V64.6703C75.5045 64.8337 75.5589 64.8064 75.4093 64.7928C75.4229 64.9289 75.4637 64.9153 75.3276 64.8881C75.3412 65.0242 75.3684 64.997 75.246 64.9834C75.2596 65.1331 75.3004 65.0923 75.1507 65.0923V65.1331C75.1507 65.2965 75.2052 65.2692 75.0555 65.242C75.0691 65.3781 75.0963 65.3509 74.9603 65.3373C74.9739 65.487 75.0011 65.4462 74.8514 65.4462L74.7698 65.5823C74.7698 65.732 74.8106 65.7048 74.6745 65.6912C74.6881 65.8273 74.7154 65.8001 74.5793 65.7865C74.5929 65.9226 74.6201 65.8954 74.4841 65.8818C74.4977 66.0179 74.5249 65.9907 74.4024 65.9771C74.416 66.1268 74.4432 66.0859 74.2936 66.0859L74.1167 66.331C74.1167 66.4807 74.1439 66.4535 74.0078 66.4398C74.0214 66.576 74.0487 66.5487 73.9126 66.5351C73.9262 66.6712 73.9534 66.644 73.8174 66.6304C73.831 66.7665 73.8582 66.7393 73.7221 66.7257C73.7357 66.8618 73.7629 66.8346 73.6269 66.821C73.6405 66.9571 73.6677 66.9299 73.5316 66.9163C73.5452 67.0524 73.5724 67.0252 73.4364 67.0115C73.45 67.1477 73.4772 67.1204 73.3411 67.1068C73.3547 67.2429 73.382 67.2157 73.2459 67.2021C73.2595 67.3382 73.2867 67.311 73.1507 67.2974C73.1643 67.4335 73.1915 67.4063 73.0554 67.3927C73.069 67.5288 73.0962 67.5016 72.9602 67.488C72.9738 67.6241 73.001 67.5968 72.8649 67.5832C72.8785 67.7194 72.9057 67.6921 72.7697 67.6785C72.7833 67.8146 72.8105 67.7874 72.6744 67.7738C72.688 67.9099 72.7153 67.8691 72.5792 67.8691C72.5928 68.0052 72.62 67.9644 72.4839 67.9644C72.4976 68.1005 72.5248 68.0733 72.3887 68.0596C72.4023 68.1958 72.4295 68.1685 72.2935 68.1549C72.3071 68.3047 72.3343 68.2502 72.1846 68.2638L71.9533 68.4408C71.9533 68.5905 71.9941 68.5633 71.8445 68.5497C71.8581 68.6858 71.8853 68.645 71.7492 68.6313C71.7628 68.7675 71.79 68.7266 71.654 68.7266C71.6676 68.8627 71.6948 68.8219 71.5451 68.8219L71.4091 68.9036C71.4091 69.0533 71.4499 69.0125 71.3002 68.9989C71.3138 69.135 71.341 69.0941 71.205 69.0805C71.2186 69.2166 71.2458 69.1758 71.1097 69.1622C71.1233 69.3119 71.1506 69.2575 71.0009 69.2575H70.9601C70.9601 69.4072 71.0009 69.3664 70.8512 69.3528C70.8648 69.4889 70.892 69.448 70.756 69.4344C70.7696 69.5705 70.7968 69.5297 70.6471 69.5297H70.6063C70.6063 69.6794 70.6471 69.6386 70.4975 69.625C70.5111 69.7611 70.5383 69.7203 70.4022 69.7067C70.4158 69.8564 70.443 69.8019 70.2798 69.8019H70.2389C70.2389 69.9517 70.2798 69.9108 70.1165 69.8972C70.1437 70.047 70.1573 69.9925 69.994 69.9925H69.9532C69.9532 70.1286 69.9804 70.1014 69.8307 70.0878C69.8444 70.2239 69.8716 70.1831 69.7219 70.1831L69.5722 70.2511C69.5722 70.4009 69.6131 70.36 69.4362 70.36H69.3954C69.3954 70.5098 69.4226 70.4689 69.2729 70.4553C69.3001 70.605 69.3137 70.5506 69.1504 70.5506H69.1096C69.1096 70.7003 69.1368 70.6595 68.9872 70.6459C69.0144 70.7956 69.028 70.7412 68.8647 70.7412H68.8239C68.8239 70.8909 68.8511 70.8501 68.6878 70.8501H68.647C68.647 70.9862 68.6742 70.9453 68.5246 70.9453C68.5518 71.0951 68.5654 71.0406 68.4021 71.027H68.3613C68.3613 71.1767 68.3885 71.1359 68.2252 71.1359H68.1844C68.1844 71.2856 68.2116 71.2312 68.0347 71.2448H68.0075C68.0075 71.3945 68.0347 71.3401 67.8579 71.3401H67.8307C67.8307 71.4762 67.8579 71.4354 67.6946 71.4217C67.7218 71.5579 67.749 71.517 67.5993 71.517H67.5041C67.5313 71.6668 67.5449 71.6123 67.368 71.5987H67.3272C67.3272 71.762 67.3544 71.7076 67.1776 71.694H67.1367C67.1367 71.8437 67.1776 71.8029 67.0279 71.8029L66.919 71.8165H66.8782L66.7286 71.9118H66.7013C66.7013 72.0615 66.7286 72.007 66.5381 72.007H66.5109C66.5109 72.1568 66.5381 72.1023 66.3476 72.1023H66.3204C66.3204 72.2657 66.3476 72.1976 66.1571 72.1976H66.1299C66.1299 72.3473 66.1571 72.2929 66.0074 72.3065H65.885H65.8578L65.6945 72.3882H65.6673C65.6673 72.5243 65.6945 72.4835 65.5448 72.4835H65.4224H65.3952L65.2319 72.5651L65.1638 72.5515L64.987 72.6876L64.9053 72.6468L64.7149 72.7693L64.6332 72.7421L64.4427 72.8646L64.3611 72.8374L64.157 72.9599L64.0754 72.9326L63.8713 73.0552L63.8168 73.0415C63.8168 73.1913 63.8441 73.1368 63.6672 73.1368L63.5175 73.164L63.4631 73.1504L63.2726 73.2185H63.1365L62.9324 73.3274L62.7828 73.3138L62.6195 73.4363L62.4562 73.4227L62.4154 73.4091L62.2249 73.5316H62.0208L61.9664 73.5043L61.7487 73.6132H61.5038L61.2453 73.7221L61.014 73.7085L60.7963 73.6949L60.3881 73.8174L60.2112 73.7902C59.9799 73.9399 60.1296 73.8855 59.803 73.8991H59.2044C58.9458 74.0352 58.8642 74.008 58.5241 73.9944H56.4423L55.9525 73.8855L55.6804 73.9127L55.2858 73.7902L54.9593 73.8038L54.6599 73.6949L54.4966 73.7221L54.2109 73.5996L54.1157 73.6405L53.8435 73.5043L53.7891 73.5316L53.6259 73.5452L53.4762 73.4091L53.3945 73.4363L53.1905 73.3138L53.1088 73.341L52.9183 73.2185L52.8639 73.2321H52.7414C52.5782 73.2321 52.6054 73.2729 52.6054 73.1368H52.5782H52.4557C52.2924 73.1368 52.3333 73.1777 52.3333 73.0415L52.2788 73.0552L52.102 72.919L52.0475 72.9326C51.8434 72.9463 51.8707 73.0007 51.8707 72.851H51.8434C51.6394 72.851 51.6802 72.919 51.6802 72.7693H51.653L51.5305 72.7557C51.3808 72.7557 51.408 72.7965 51.408 72.6468H51.3808C51.1903 72.6604 51.2312 72.7149 51.2312 72.5515H51.1903C51.0135 72.5515 51.0407 72.606 51.0407 72.4562H50.9999C50.823 72.4562 50.8502 72.5107 50.8502 72.361H50.8094C50.6325 72.361 50.6597 72.4154 50.6597 72.2657H50.6189C50.442 72.2657 50.4692 72.3201 50.4692 72.1704H50.4284C50.2515 72.1704 50.2787 72.2248 50.2787 72.0751H50.2515C50.0746 72.0887 50.0883 72.1432 50.1155 71.9934C49.9658 72.007 49.993 72.0479 49.993 71.9118H49.9522C49.7753 71.9118 49.8161 71.9526 49.8161 71.8029H49.7753C49.612 71.8029 49.6393 71.8573 49.6529 71.7076C49.5032 71.7212 49.5304 71.762 49.5304 71.6123H49.4896C49.3263 71.6123 49.3535 71.6531 49.3671 71.517C49.2175 71.5306 49.2447 71.5715 49.2447 71.4217H49.2039C49.0406 71.4217 49.0678 71.4626 49.0814 71.3265C48.9317 71.3401 48.9726 71.3809 48.9726 71.2312H48.9317C48.7685 71.2312 48.7957 71.2856 48.8093 71.1359C48.6732 71.1495 48.7004 71.1903 48.714 71.0542C48.5644 71.0678 48.6052 71.0951 48.6052 70.9589H48.5644C48.4147 70.9589 48.4419 70.9998 48.4555 70.8637C48.3195 70.8773 48.3467 70.9045 48.3603 70.7684C48.2242 70.782 48.2514 70.8092 48.265 70.6731C48.129 70.6867 48.1562 70.7275 48.1698 70.5914C48.0201 70.605 48.0609 70.6459 48.0609 70.4825L47.8296 70.3056C47.68 70.3056 47.7072 70.3464 47.7208 70.1967C47.5847 70.2103 47.6119 70.2375 47.6255 70.1014C47.4895 70.115 47.5167 70.1422 47.5303 70.0061C47.3942 70.0197 47.4215 70.047 47.4351 69.9108C47.2854 69.9245 47.3262 69.9517 47.3262 69.8019L47.1629 69.5705C47.0133 69.5705 47.0405 69.6114 47.0541 69.4617C46.918 69.4753 46.9588 69.5025 46.9725 69.3664C46.8364 69.38 46.8772 69.4072 46.8908 69.2711C46.7548 69.2847 46.7956 69.3119 46.7956 69.1622V69.1214C46.6459 69.1214 46.6867 69.1622 46.7003 69.0125C46.5643 69.0261 46.6051 69.0533 46.6051 68.89V68.8491C46.469 68.8491 46.4962 68.8764 46.5098 68.7266C46.3602 68.7538 46.4146 68.7675 46.4146 68.6041V68.5633C46.2649 68.5633 46.3194 68.5905 46.3194 68.4408C46.1425 68.468 46.1697 68.5088 46.2241 68.3455L46.1289 68.3863V68.5088L46.02 68.7266L46.0336 68.8083L46.02 68.9716C46.0336 69.1622 46.0881 69.135 45.9384 69.135L45.952 69.1758L45.9384 69.3391C45.952 69.5297 46.0064 69.5025 45.8431 69.5025L45.8568 69.5433L45.7479 69.7747L45.7751 69.9381L45.639 70.1967L45.6799 70.3056L45.5438 70.5642L45.571 70.7275L45.4622 70.9589L45.4758 71.1087L45.3669 71.3401L45.3805 71.4898L45.2717 71.7076L45.2853 71.8573L45.1764 72.0751L45.19 72.2248L45.1084 72.4562L44.986 72.7285L45.0268 72.8101L45.0132 73.0007L44.9179 73.1913L44.7955 73.4635L44.8091 73.5996L44.741 73.8038V73.9263L44.6322 74.1441L44.6458 74.2938L44.537 74.5116L44.5506 74.6613L44.4417 74.8791L44.4553 75.0289L44.4417 75.1922C44.4553 75.3828 44.5097 75.3555 44.3465 75.3555L44.3601 75.3964L44.2512 75.6278L44.2648 75.7639L44.156 75.9953L44.1832 76.145L44.0471 76.4036L44.0743 76.4581L44.088 76.6214L43.9655 76.7848L43.9791 76.8256L43.9111 77.0162V77.1523L43.8022 77.3701L43.8158 77.5198L43.7886 77.6695L43.707 77.8329L43.7206 77.8873L43.6934 78.0507C43.6934 78.2412 43.7614 78.214 43.6117 78.214L43.6253 78.2548L43.5981 78.4182C43.5981 78.6087 43.6662 78.5815 43.5029 78.5815L43.5301 78.636L43.394 78.8946L43.4213 78.949L43.4349 79.1124L43.3124 79.2757L43.326 79.3166L43.3396 79.4799L43.2172 79.6432L43.2308 79.6841L43.1627 79.8746V80.0107L43.1355 80.1741C43.1491 80.3647 43.2036 80.3374 43.0539 80.3374L43.0675 80.3783L42.9586 80.5961V80.7049L42.9723 80.8683L42.8634 81.018V81.1814C42.8634 81.3719 42.9314 81.3311 42.7682 81.3311L42.7818 81.3855L42.6593 81.5897L42.6865 81.6578L42.5641 81.8619L42.5913 81.9436L42.4688 82.1342L42.4824 82.1886V82.3247C42.4824 82.4881 42.5232 82.4609 42.3872 82.4609V82.4745V82.597C42.3872 82.7467 42.428 82.7195 42.2919 82.7195V82.7467L42.2103 82.91L42.1967 83.0189C42.2103 83.2231 42.2647 83.1959 42.1151 83.1959V83.2231V83.3456C42.1151 83.4954 42.1559 83.4681 42.0062 83.4681V83.4954C42.0062 83.6995 42.0742 83.6723 41.9246 83.6723V83.6995V83.822C41.9246 83.9718 41.9654 83.9445 41.8157 83.9445V83.9718C41.8293 84.1759 41.8838 84.1351 41.7341 84.1351V84.1623L41.6389 84.3257V84.3529L41.6252 84.4618C41.6252 84.6115 41.6661 84.5707 41.5164 84.5707V84.6115C41.5164 84.8021 41.5844 84.7749 41.4348 84.7749V84.8021C41.4348 84.979 41.4892 84.9518 41.3395 84.9518V84.9926L41.2443 85.1424V85.1696L41.2307 85.2785C41.2307 85.4282 41.2715 85.4146 41.1354 85.3738V85.4691C41.1354 85.6188 41.1762 85.5916 41.0266 85.5916V85.6188C41.0402 85.7957 41.0946 85.7685 40.9313 85.7685V85.8093C40.9449 85.9999 40.9994 85.9591 40.8361 85.9591V85.9999C40.8361 86.1769 40.8905 86.1496 40.7408 86.1496V86.1905C40.7408 86.3674 40.7953 86.3402 40.6456 86.3402V86.381C40.6456 86.558 40.7 86.5308 40.5504 86.5308V86.5716C40.5504 86.7486 40.6048 86.7213 40.4551 86.7213V86.7622C40.4551 86.9391 40.5095 86.9119 40.3599 86.9119V86.9391C40.3735 87.1297 40.4279 87.0889 40.2646 87.0889V87.1161C40.2782 87.293 40.3327 87.2794 40.183 87.2522V87.3339C40.183 87.47 40.2102 87.4428 40.0877 87.4291C40.1014 87.5789 40.1422 87.5517 40.0061 87.5517V87.5925C39.9925 87.7694 40.0469 87.7286 39.9109 87.7286V87.7694C39.9109 87.9464 39.9653 87.9192 39.8156 87.9192V87.96C39.8156 88.137 39.8701 88.1097 39.7068 88.1097V88.137C39.7068 88.3139 39.7612 88.3003 39.6251 88.2595V88.3547C39.6115 88.4909 39.6524 88.4772 39.5299 88.45C39.5435 88.6134 39.5843 88.5725 39.4483 88.5725V88.6134C39.4483 88.7903 39.4891 88.7495 39.3394 88.7495V88.7903C39.3394 88.9537 39.3938 88.94 39.2578 88.9128C39.2714 89.0626 39.3122 89.0353 39.1761 89.0353V89.0762C39.1625 89.2531 39.217 89.2123 39.0673 89.2123V89.2531C39.0673 89.4301 39.1217 89.4028 38.9584 89.4028V89.4437C38.972 89.607 39.0129 89.5934 38.8632 89.5662C38.8768 89.7295 38.9176 89.6887 38.768 89.6887V89.7295C38.768 89.8929 38.8224 89.8793 38.6727 89.852C38.6863 90.0018 38.7271 89.9745 38.5911 89.9745V90.0154C38.5775 90.1787 38.6319 90.1515 38.4822 90.1515V90.1923C38.4822 90.3557 38.523 90.3284 38.387 90.3148C38.4006 90.4646 38.4414 90.4373 38.2917 90.4373V90.4782C38.2917 90.6551 38.3326 90.6143 38.1829 90.6143V90.6551C38.1965 90.8321 38.2373 90.8049 38.0877 90.7776C38.1013 90.9274 38.1421 90.9001 37.9924 90.9001V90.941C37.9924 91.1043 38.0468 91.0771 37.8972 91.0635C37.9108 91.2132 37.9516 91.186 37.8019 91.186V91.2268C37.8019 91.3902 37.8563 91.3629 37.7067 91.3493C37.7203 91.4991 37.7611 91.4718 37.6114 91.4718V91.5127C37.6114 91.676 37.6523 91.6488 37.5162 91.6352C37.5298 91.7849 37.5706 91.7577 37.4209 91.7577V91.7985C37.4209 91.9619 37.4618 91.9346 37.3257 91.921C37.3393 92.0707 37.3801 92.0435 37.2305 92.0435V92.0844C37.2305 92.2477 37.2849 92.2341 37.1352 92.2069C37.1488 92.3566 37.1896 92.3294 37.04 92.3294V92.3702C37.04 92.5199 37.0808 92.4927 36.9447 92.4791C36.9583 92.6288 36.9856 92.6016 36.8495 92.6016V92.6424C36.8495 92.8058 36.8903 92.7786 36.7542 92.7513C36.7679 92.9011 36.8087 92.8738 36.659 92.8738V92.9147C36.659 93.078 36.7134 93.0508 36.5638 93.0372C36.5774 93.1869 36.6182 93.1597 36.4821 93.1325C36.4957 93.2822 36.5365 93.2414 36.3869 93.2414V93.2822C36.3869 93.4455 36.4277 93.4183 36.2916 93.3911C36.3052 93.5408 36.3325 93.5136 36.1964 93.5136V93.5544C36.1964 93.7178 36.2372 93.6905 36.1012 93.6769C36.1148 93.8267 36.142 93.7858 36.0059 93.7858L35.9379 93.9356C35.9379 94.0989 35.9787 94.0717 35.8426 94.0444C35.8562 94.1942 35.8971 94.1533 35.7474 94.1533L35.6794 94.3031C35.6794 94.4664 35.7202 94.4392 35.5841 94.412C35.5977 94.5617 35.6249 94.5209 35.4889 94.5209V94.5617C35.4889 94.7114 35.5297 94.6842 35.3936 94.6706C35.4072 94.8067 35.4345 94.7931 35.312 94.7659C35.3256 94.9156 35.3664 94.8748 35.2168 94.8748L35.1351 95.0109C35.1351 95.1742 35.1759 95.147 35.0263 95.1198C35.0399 95.2695 35.0807 95.2287 34.931 95.2287L34.8494 95.3784C34.8494 95.5281 34.8902 95.5009 34.7541 95.4873C34.7678 95.6234 34.795 95.5962 34.6725 95.5826C34.6861 95.7323 34.7133 95.6915 34.5773 95.6915V95.7323C34.5773 95.882 34.6181 95.8548 34.482 95.8412C34.4956 95.9909 34.5228 95.9501 34.3732 95.9365H34.3324C34.3324 96.0998 34.3596 96.0454 34.1555 96.0182H33.8834C33.6793 96.0318 33.7065 96.0862 33.7065 95.9365H33.6657C33.5024 95.9365 33.5296 95.9773 33.5568 95.8412C33.4071 95.8548 33.4616 95.882 33.4616 95.7187L33.4888 95.569C33.4207 95.4873 33.4344 95.5281 33.3799 95.3784C33.3119 95.1742 33.3663 95.2287 33.3663 95.1198L33.2711 94.725L33.2983 94.4392L33.1622 93.99V93.5L33.0942 93.2005V92.7241L32.9853 92.2341L33.0262 91.9618C32.8901 91.7441 32.8765 91.5671 32.8901 91.2404L32.9309 91.0635C32.7813 90.8185 32.8357 90.9818 32.8221 90.6551L32.8085 89.9337L32.8357 89.6751L32.7268 89.1851V88.2458V84.3393C32.6996 83.9854 32.686 83.7404 32.8357 83.4817L32.7949 83.0189C32.7949 82.7195 32.7949 82.42 32.9445 82.2159L32.8765 82.0797C32.8901 81.7667 32.8765 81.6714 33.0262 81.4536L32.9853 81.1677C33.0126 80.8547 32.9717 80.9227 33.1214 80.7049L33.0942 80.528L33.203 80.2149L33.1894 79.9699L33.2983 79.6705L33.2711 79.4799L33.4071 79.1396L33.3799 78.8946L33.4752 78.6632L33.448 78.5679L33.4888 78.3501C33.4752 78.1323 33.4071 78.1732 33.5704 78.1732V78.0915L33.6384 77.8737V77.6695L33.7609 77.3973L33.7473 77.2067L33.8561 77.0162L33.8425 76.8801L33.9514 76.6487V76.5261L34.0194 76.322V76.1859L34.1283 75.9681L34.1419 75.6822L34.2099 75.478L34.2235 75.3011L34.2915 75.0969V74.9063L34.4004 74.6749L34.3732 74.6069L34.4684 74.3619L34.4548 74.1305L34.5909 73.8582L34.5637 73.7902L34.5501 73.6268L34.6725 73.4635V73.341L34.7405 73.1504V73.0143L34.8494 72.7965L34.8358 72.6468L34.863 72.4835L34.9446 72.3201L34.9174 72.2521L35.0535 71.9934L35.0399 71.762L35.1487 71.5306L35.1351 71.4898L35.1079 71.3129L35.244 71.0951L35.2304 70.8909L35.3392 70.7139L35.3256 70.5234L35.4345 70.3328V70.2103L35.5025 70.0197V69.8972L35.6113 69.6794L35.5977 69.5297L35.6113 69.3664C35.6113 69.1758 35.5433 69.203 35.693 69.203L35.6658 69.135L35.8018 68.8627L35.7882 68.6313L35.8971 68.3999L35.8562 68.3183L35.9923 68.046L35.9787 67.9099L36.0467 67.7057V67.488L36.1828 67.2293L36.1556 67.0524L36.2508 66.821V66.6985L36.3189 66.5079V66.3854L36.3325 66.2221C36.3325 66.0179 36.2644 66.0587 36.4141 66.0587L36.3869 66.0043L36.5229 65.7457L36.4821 65.6368L36.6182 65.3645L36.6046 65.242L36.591 65.0787L36.7134 64.9017L36.6862 64.8337L36.7815 64.6023L36.7951 64.4117L36.8631 64.2075V64.085V63.8945L36.9719 63.7039V63.5814L37.04 63.3772L37.0672 63.2003L37.1352 62.9961V62.8736L37.1488 62.7102C37.1488 62.5197 37.0808 62.5469 37.2305 62.5469L37.2033 62.4924L37.3393 62.2202L37.3257 61.9888L37.4346 61.7574L37.4209 61.6213L37.5298 61.3899V61.2674L37.5978 61.0632V60.9407L37.6931 60.7093L37.7067 60.4371L37.7747 60.2465L37.7883 60.0696L37.8563 59.8654V59.7429L37.8699 59.5659C37.8699 59.3754 37.8019 59.4026 37.9516 59.4026L37.938 59.3617V59.1712L38.0468 58.9942L38.0332 58.8037L38.1557 58.6131L38.1421 58.5723L38.1285 58.3953L38.2509 58.232V58.1095L38.319 57.9053L38.3326 57.7283L38.4006 57.5378L38.4142 57.2655L38.523 57.0341L38.5094 56.8844L38.6183 56.653L38.6047 56.5033L38.7135 56.2719L38.6863 56.2038L38.7952 55.9588L38.7816 55.8227V55.6321L38.904 55.4552L38.8904 55.4143L38.8768 55.2374L38.9993 55.0741L38.9857 54.9243L39.0945 54.6929V54.5704L39.1625 54.3662V54.2437V54.0532L39.285 53.8762L39.2714 53.7265L39.3802 53.4951V53.3726V53.0867V53.0731C39.2442 53.0731 39.285 53.114 39.2714 52.9506V52.8281V52.8009L39.1897 52.6376V52.6103C39.0537 52.6103 39.0945 52.6376 39.0945 52.4878V52.3653V52.3381C38.9448 52.3381 38.9993 52.3653 39.0129 52.1611L38.9993 52.0659C38.836 52.0659 38.904 52.0931 38.9176 51.8889V51.7664L38.7952 51.5622L38.8224 51.4806L38.6999 51.2628L38.7135 51.2219C38.5639 51.2219 38.6183 51.2492 38.6183 51.0586V50.8952L38.523 50.6775V50.4733L38.455 50.2827L38.4414 50.0105L38.3462 49.7791L38.3598 49.643L38.2645 49.398L38.2917 49.2346C38.1285 49.0304 38.1965 49.1802 38.1693 48.8535L38.2101 48.5813C38.0604 48.3635 38.0877 48.3635 38.074 48.0368L38.1285 47.819C37.9788 47.6012 37.9788 47.3154 37.9924 47.0023V44.9061C37.9924 44.5658 37.9652 44.4705 38.1149 44.2391L38.0877 44.0622V43.7627L38.1965 43.4632L38.1693 43.3952V43.123L38.2917 42.8507L38.2645 42.769L38.3598 42.524L38.3734 42.3335L38.4414 42.1293L38.4822 41.8707L38.5503 41.6801L38.5367 41.6257L38.5639 41.4759C38.5639 41.299 38.4958 41.3262 38.6591 41.3262L38.6455 41.2854L38.768 41.0812L38.7407 40.9995L38.8632 40.809L38.8224 40.7273L38.9584 40.5367L38.9448 40.4823C38.9312 40.2781 38.8768 40.3053 39.0265 40.3053V40.2781V40.1556C39.0265 40.0059 38.9857 40.0331 39.1353 40.0331V40.0059C39.1353 39.8153 39.0673 39.8425 39.217 39.8425V39.8017L39.2986 39.652V39.6247L39.3122 39.5158C39.3122 39.3797 39.2714 39.3933 39.4074 39.4206V39.3253C39.4074 39.1755 39.3666 39.2164 39.5163 39.2164V39.1892C39.5027 39.0122 39.4483 39.0258 39.5979 39.053V38.9578C39.5979 38.8216 39.5707 38.8353 39.6932 38.8625C39.6796 38.6991 39.6387 38.74 39.7748 38.74V38.6991C39.7748 38.5222 39.734 38.563 39.8837 38.563V38.5222C39.8837 38.3588 39.8292 38.3861 39.9789 38.3997C39.9789 38.2499 39.9381 38.2772 40.0605 38.2772V38.2363C40.0605 38.073 40.0197 38.1002 40.1694 38.1002V38.0594C40.1694 37.896 40.115 37.9097 40.2646 37.9369C40.251 37.7872 40.2102 37.8144 40.3599 37.8144L40.4279 37.6646C40.4279 37.5149 40.3871 37.5285 40.5231 37.5558C40.5095 37.406 40.4823 37.4469 40.6184 37.4469L40.7 37.2971C40.7136 37.1474 40.6592 37.1746 40.8089 37.1882C40.7953 37.0521 40.7681 37.0793 40.8905 37.093C40.8769 36.9432 40.8497 36.9841 40.9994 36.9841L41.1626 36.7527C41.1626 36.6029 41.1218 36.6302 41.2715 36.6438C41.2579 36.5076 41.2171 36.5349 41.3667 36.5485C41.3531 36.4124 41.3259 36.4396 41.462 36.4532C41.4484 36.3171 41.4212 36.3443 41.5572 36.3579C41.5436 36.2218 41.5164 36.2626 41.6525 36.2626C41.6389 36.1265 41.6116 36.1537 41.7477 36.1674C41.7341 36.0312 41.7069 36.0721 41.8565 36.0585L42.0879 35.8951C42.0879 35.7454 42.047 35.7726 42.1967 35.7862C42.1831 35.6501 42.1559 35.6909 42.2919 35.7046C42.2783 35.5684 42.2511 35.6093 42.4008 35.5957L42.5505 35.514C42.5505 35.3643 42.5096 35.4051 42.6593 35.4187C42.6457 35.269 42.6185 35.3234 42.7818 35.3234H42.8226C42.8226 35.1873 42.7954 35.2145 42.945 35.2281C42.9314 35.0784 42.9042 35.1329 43.0675 35.1329H43.1083C43.1083 34.9831 43.0811 35.024 43.258 35.024H43.2852C43.2852 34.8742 43.258 34.9287 43.4076 34.9287C43.3804 34.7926 43.3532 34.8334 43.5029 34.8334H43.5981C43.5709 34.6837 43.5573 34.7381 43.7342 34.7517H43.775C43.775 34.6156 43.7342 34.6428 43.8839 34.6428L43.9927 34.6292H44.0335L44.1968 34.5476H44.224C44.224 34.3978 44.1968 34.4523 44.3873 34.4659L44.4553 34.4795L44.6458 34.357L44.7955 34.3706L45.0132 34.2753L45.19 34.1664H45.3805L45.4622 34.1937L45.7615 34.0848L46.1017 34.112L47.4078 34.0031C47.6664 34.0439 47.3262 33.9759 47.5711 34.0439L47.6936 34.112L48.1018 34.0984L48.3603 34.1937L48.4963 34.18L48.7276 34.2889L48.8773 34.2753L49.0814 34.3978L49.163 34.357L49.3399 34.4931L49.408 34.4795C49.5984 34.4659 49.5712 34.4114 49.5712 34.5612H49.5984C49.7753 34.5612 49.7481 34.5067 49.7481 34.6564H49.7889C49.9658 34.6564 49.9386 34.602 49.9386 34.7517H49.9794C50.1563 34.7517 50.1155 34.6973 50.1155 34.8606H50.1563C50.3196 34.8606 50.306 34.8062 50.2787 34.9559C50.4284 34.9423 50.4012 34.9015 50.4012 35.0512H50.442C50.6053 35.0512 50.5781 34.9967 50.5645 35.1465C50.7141 35.1329 50.6869 35.092 50.6597 35.2281C50.8094 35.2145 50.7686 35.1873 50.7686 35.3234L50.9182 35.4051C51.0679 35.4187 51.0407 35.3779 51.0271 35.514C51.1631 35.5004 51.1359 35.4732 51.1223 35.6093C51.2584 35.5957 51.2312 35.5684 51.2176 35.7046C51.3536 35.6909 51.3264 35.6637 51.3128 35.7998C51.4489 35.7862 51.4217 35.759 51.408 35.8951C51.5577 35.8815 51.5033 35.8543 51.5169 36.004L51.5985 36.1401C51.7482 36.1401 51.7074 36.0993 51.6938 36.249C51.8298 36.2354 51.789 36.2082 51.7754 36.3443C51.9115 36.3307 51.8707 36.3035 51.8707 36.4532V36.494C52.0067 36.494 51.9795 36.4668 51.9659 36.6165C52.1156 36.5893 52.0611 36.5757 52.0611 36.739V36.7799C52.2244 36.7799 52.17 36.739 52.17 36.916V36.9432C52.3197 36.9432 52.2652 36.916 52.2652 37.093V37.1202C52.4149 37.1202 52.3605 37.0929 52.3605 37.2835V37.3107C52.5101 37.3107 52.4557 37.2835 52.4557 37.4741V37.5013C52.6054 37.5013 52.551 37.4741 52.551 37.6646V37.6919C52.687 37.6919 52.6462 37.6646 52.6462 37.8144V37.9369V37.9641C52.7823 37.9641 52.7414 37.9369 52.7414 38.0866V38.2091L52.7278 38.2636L52.8367 38.4677L52.7959 38.563L52.9319 38.8216L52.8911 38.9986L53.0136 39.2981L52.9864 39.5567C53 39.5703 53.0136 39.5975 53.0272 39.6111C53.0272 39.6247 53.0544 39.652 53.068 39.6792L53.1224 40.1148L53.1088 41.6665V42.0885L53 42.5376C53 42.6738 53.0408 42.5649 52.9864 42.7963C52.9183 43.1093 52.9455 42.9052 52.8911 43.0004L52.9319 43.3407C52.8911 43.6538 52.9591 43.5177 52.7959 43.6946L52.8231 43.7899L52.7278 44.0349L52.7414 44.1983L52.619 44.4705L52.6462 44.6339V44.8244L52.5238 45.0014L52.5374 45.1511L52.4421 45.3825L52.4557 45.5186L52.3741 45.7636L52.2516 46.0359L52.2924 46.1175L52.2652 46.2673C52.2652 46.4714 52.3333 46.4306 52.1836 46.4306V46.5395L52.0748 46.7573L52.0884 46.7981L52.102 46.9615L51.9659 47.1112L51.9931 47.1929L51.8843 47.397L51.9115 47.4923L51.8026 47.6965L51.8298 47.7918L51.8026 47.9415C51.8162 48.1321 51.8707 48.1048 51.7074 48.1048L51.721 48.1457L51.6121 48.3499L51.6394 48.4179L51.5305 48.6357L51.5441 48.7718L51.4217 48.9896L51.4489 49.0713L51.3264 49.2755L51.3536 49.3571L51.2312 49.5477L51.2448 49.6974L51.1223 49.888L51.1495 49.9833L51.0407 50.1738L51.0679 50.2555L50.9454 50.4597L50.9727 50.5413L50.8502 50.7455L50.8638 50.8952L50.7414 51.0994L50.7686 51.1811L50.6461 51.3853L50.6733 51.4669L50.5509 51.6711L50.5645 51.712L50.5781 51.8753L50.442 52.025L50.4556 52.0795L50.374 52.2564V52.3925L50.2515 52.5831L50.2787 52.6648L50.1699 52.8689L50.1971 52.9506L50.0746 53.1548L50.1019 53.2365L50.0746 53.3862C50.0746 53.5768 50.1427 53.5495 49.9794 53.5495L49.993 53.5631L50.0066 53.7265L49.8706 53.8762L49.8978 53.9579L49.7889 54.1757L49.8025 54.2165L49.8161 54.3799L49.6801 54.516L49.7073 54.6113L49.5984 54.8154L49.6256 54.9107L49.5168 55.1149L49.544 55.1966L49.5168 55.3463C49.5168 55.5368 49.5848 55.5096 49.4352 55.5096L49.4488 55.5505L49.4216 55.7138C49.4352 55.9044 49.4896 55.8771 49.3263 55.8771L49.3399 55.918L49.2311 56.1494V56.3536L49.1222 56.585L49.1358 56.7211L49.027 56.9525L49.0542 57.0205L48.9453 57.2383V57.4561L48.8501 57.7011L48.8773 58.1367L48.8365 59.4843L48.8773 59.9471L48.8501 60.124L48.9453 60.369V60.6004L49.0542 60.8182L49.027 60.8999L49.1358 61.104L49.1222 61.1585C49.2583 61.1585 49.2175 61.1313 49.2175 61.281V61.4035V61.4171C49.3807 61.4171 49.3127 61.3899 49.2991 61.5941V61.6213C49.4488 61.6213 49.408 61.5805 49.408 61.7438L49.4216 61.8527V61.8799L49.5168 62.0296V62.0705C49.6529 62.0705 49.612 62.0433 49.5984 62.193C49.7481 62.1658 49.6937 62.1522 49.6801 62.3155V62.3563C49.8297 62.3563 49.7889 62.3291 49.7889 62.4924V62.5333C49.9386 62.5333 49.8978 62.5061 49.8842 62.6558C50.0338 62.6286 49.9794 62.615 49.9794 62.7783V62.8191C50.1291 62.8191 50.0883 62.7783 50.0746 62.9416C50.2107 62.928 50.1699 62.9008 50.1699 63.0641L50.2515 63.2003C50.4012 63.2003 50.3604 63.1594 50.3468 63.3091C50.4828 63.2955 50.442 63.2683 50.4284 63.4044C50.5645 63.3908 50.5373 63.3636 50.5237 63.4997C50.6597 63.4861 50.6325 63.4589 50.6189 63.595C50.755 63.5814 50.7277 63.5542 50.7141 63.6903C50.8502 63.6767 50.823 63.6494 50.8094 63.7856C50.9454 63.7719 50.9182 63.7311 50.9046 63.8808C51.0407 63.8672 51.0135 63.8264 50.9999 63.9761C51.1359 63.9625 51.1087 63.9353 51.0951 64.0714C51.2312 64.0578 51.204 64.0306 51.1903 64.1531C51.3264 64.1395 51.2992 64.1122 51.2856 64.2484C51.4353 64.2347 51.3944 64.2075 51.3944 64.3436L51.5305 64.4253C51.6938 64.4253 51.6666 64.3845 51.6394 64.5206C51.789 64.507 51.7482 64.4661 51.7482 64.6159H51.789C51.9523 64.6159 51.9251 64.5614 51.9115 64.7112C52.0611 64.6975 52.0339 64.6567 52.0339 64.8064H52.0748C52.2516 64.8064 52.2108 64.752 52.2108 64.9153H52.2516C52.4149 64.9017 52.4013 64.8609 52.3741 64.997C52.5374 64.9834 52.5101 64.9426 52.5101 65.0787H52.551C52.7278 65.0923 52.7006 65.0378 52.7006 65.174H52.7414C52.9319 65.174 52.9047 65.1195 52.9047 65.2692H52.9319L53.0544 65.2829C53.2041 65.2829 53.1768 65.242 53.1768 65.3917H53.2041C53.4081 65.3781 53.3673 65.3237 53.3673 65.4734L53.4218 65.4598L53.6122 65.5823L53.6939 65.5551L53.8844 65.6776L54.034 65.664L54.2381 65.7729L54.3878 65.7593L54.6191 65.8545L54.864 65.8409L55.245 65.9634L55.5715 65.9498L57.0818 65.9226L57.3403 65.9498L57.6669 65.8545H57.9798L58.2247 65.7729L58.3744 65.7865L58.5377 65.664L58.7009 65.6776L58.7418 65.6912L58.905 65.5687L59.0547 65.5823L59.0955 65.5959L59.2996 65.4734L59.3812 65.5006L59.5717 65.3781L59.6262 65.3917C59.6262 65.2284 59.5989 65.2965 59.803 65.3101H59.8302C59.8302 65.1603 59.7894 65.2012 59.9527 65.2012H60.0752H60.1024C60.1024 65.0515 60.0752 65.1059 60.2656 65.1195H60.2929C60.2929 64.9698 60.2656 65.0242 60.4425 65.0242H60.4833C60.4833 64.8745 60.4561 64.9153 60.633 64.9289H60.6738C60.6738 64.7656 60.6466 64.8201 60.8235 64.8337H60.8643C60.8643 64.6703 60.8371 64.7248 61.014 64.7384H61.0412C61.0412 64.5887 61.014 64.6431 61.1909 64.6431H61.2181C61.2181 64.4934 61.1909 64.5478 61.3677 64.5342L61.5174 64.4661C61.5174 64.3164 61.4766 64.3573 61.6535 64.3573H61.6943C61.6943 64.2211 61.6671 64.262 61.8167 64.262C61.8031 64.1259 61.7759 64.1667 61.9392 64.1667H61.98C61.98 64.017 61.9528 64.0578 62.0889 64.0714C62.0753 63.9353 62.048 63.9761 62.2113 63.9761L62.3474 63.8945C62.3474 63.7447 62.3066 63.7856 62.4698 63.7992C62.4426 63.6631 62.429 63.7039 62.5787 63.7039L62.7284 63.6222C62.7284 63.4725 62.6875 63.5133 62.8372 63.5269C62.8236 63.3908 62.7964 63.4317 62.9324 63.4317C62.9188 63.2955 62.8916 63.3364 63.0413 63.3228L63.2726 63.1594C63.2726 63.0097 63.2318 63.0369 63.3815 63.0505C63.3678 62.9144 63.3406 62.9416 63.4767 62.9552C63.4631 62.8191 63.4359 62.86 63.5719 62.86C63.5583 62.7238 63.5311 62.7647 63.6672 62.7647C63.6536 62.6286 63.6264 62.6558 63.7624 62.6694C63.7488 62.5333 63.7216 62.5605 63.8577 62.5741C63.8441 62.438 63.8168 62.4652 63.9529 62.4788C63.9393 62.3427 63.9121 62.3699 64.0481 62.3836C64.0345 62.2474 63.9937 62.2747 64.1434 62.2883C64.1298 62.1522 64.1026 62.1794 64.2386 62.193C64.225 62.0569 64.1978 62.0841 64.3339 62.0977C64.3203 61.9616 64.2931 62.0024 64.4427 62.0024L64.7012 61.6621C64.7012 61.4988 64.6604 61.526 64.8101 61.5532C64.7965 61.4171 64.7693 61.4443 64.9053 61.458C64.8917 61.3218 64.8509 61.3491 64.987 61.3627C64.9734 61.2129 64.9462 61.2538 65.0822 61.2538L65.1638 61.104C65.1775 60.9543 65.123 60.9815 65.2727 60.9952C65.2591 60.8454 65.2183 60.8863 65.3679 60.8863V60.8454C65.3679 60.6821 65.3135 60.7093 65.4632 60.7229C65.4496 60.5732 65.4088 60.6004 65.5448 60.6276C65.5312 60.4779 65.504 60.5187 65.6401 60.5187V60.4779C65.6401 60.3146 65.5856 60.3418 65.7353 60.3554C65.7217 60.2057 65.6809 60.2329 65.8169 60.2601C65.8033 60.1104 65.7625 60.1376 65.9122 60.1376V60.0968C65.9122 59.9471 65.8714 59.9607 66.0074 59.9879C65.9938 59.8382 65.953 59.8654 66.1027 59.8654V59.8245C66.1027 59.6612 66.0619 59.6884 66.1979 59.702C66.1843 59.5523 66.1435 59.5795 66.2932 59.5795V59.5387C66.2932 59.3618 66.2523 59.4026 66.402 59.4026V59.3754C66.402 59.212 66.3476 59.2256 66.4972 59.2529C66.4836 59.1031 66.4428 59.1303 66.5925 59.1303V59.0895C66.5925 58.9262 66.5517 58.9534 66.7013 58.9534V58.9126C66.6877 58.7492 66.6469 58.7628 66.783 58.7901C66.7694 58.6403 66.7286 58.6675 66.8646 58.6675V58.6403C66.8646 58.4634 66.8238 58.4906 66.9735 58.4906V58.4498C66.9735 58.2728 66.919 58.3 67.0823 58.3V58.2728C67.0687 58.0822 67.0279 58.1231 67.1776 58.1231V58.0959C67.1639 57.9189 67.1095 57.9325 67.2592 57.9597V57.8645C67.2592 57.7283 67.232 57.7556 67.3544 57.7692V57.6739C67.3544 57.5378 67.3272 57.565 67.4497 57.5786V57.4833C67.4497 57.3472 67.4089 57.3608 67.5449 57.388V57.2928C67.5449 57.143 67.5041 57.1703 67.6538 57.1703V57.143C67.6402 56.9525 67.5857 56.9797 67.749 56.9797V56.9525C67.7354 56.7619 67.681 56.7891 67.8443 56.7891V56.7619C67.8307 56.5713 67.7762 56.5986 67.9395 56.5986V56.5713C67.9395 56.3808 67.8851 56.408 68.0347 56.408V56.3808V56.2583C68.0347 56.1085 67.9939 56.1494 68.1436 56.1494V56.1222C68.13 55.9316 68.0756 55.9588 68.2252 55.9588V55.9316L68.3069 55.7683V55.741V55.6185C68.3069 55.4688 68.2661 55.496 68.4021 55.496V55.4688L68.4837 55.2918V55.2646V55.1421C68.4837 54.9788 68.4429 55.0196 68.5926 55.0196L68.579 54.9652L68.7014 54.7746L68.6878 54.7201C68.6742 54.516 68.6198 54.5432 68.7695 54.5432V54.5296V54.4071C68.7695 54.2437 68.7287 54.271 68.8647 54.271L68.8511 54.2165L68.9736 54.0396L68.96 53.9851V53.8626L69.0552 53.7401L69.0416 53.6857L69.1641 53.4951L69.1368 53.4134L69.2593 53.2092L69.2321 53.1276L69.2593 52.9778C69.2457 52.7873 69.1913 52.8145 69.3545 52.8145L69.3273 52.7737L69.4362 52.5559L69.4226 52.4062L69.5314 52.1884L69.5178 52.1475L69.5042 51.9842L69.6267 51.8208V51.6847L69.6947 51.4942L69.6811 51.4533V51.2628L69.7899 51.0722V50.9497L69.858 50.7455L69.8307 50.6775L69.8716 50.4733C69.858 50.2691 69.7899 50.2963 69.9532 50.2963L69.9396 50.2555V50.0513L70.0485 49.8471L70.0212 49.7927V49.5885L70.1301 49.3707L70.1029 49.3163V49.1121L70.2117 48.8943L70.1981 48.7446L70.307 48.4451L70.2934 48.1048L70.4158 47.7373L70.3886 47.5468L70.5111 47.1656L70.4838 46.9206V46.6076L70.5927 46.3217L70.5655 46.1448C70.5791 45.8589 70.5655 45.75 70.7015 45.505L70.6743 44.8925C70.6743 44.7427 70.6607 44.6611 70.6743 44.4841C70.7151 44.2391 70.7151 44.3208 70.7832 44.1847L70.756 43.4769L70.7696 40.3053L70.8104 39.9378C70.6607 39.72 70.6607 39.5158 70.6607 39.23L70.7152 38.9441C70.5655 38.74 70.6063 38.808 70.5791 38.495L70.6063 38.3316L70.5111 38.1002L70.4975 37.8416L70.5247 37.6646L70.4022 37.3924L70.4158 37.2427L70.3478 37.0385V36.916L70.2389 36.6982L70.2525 36.5485L70.1301 36.3851L70.1437 36.2218L70.1573 36.181L70.0485 35.9632L70.0757 35.8815L69.9532 35.6773L69.9668 35.5276L69.8444 35.3234L69.858 35.2554L69.7763 35.0784L69.7627 34.9831L69.6811 34.8198V34.7926C69.545 34.7926 69.5858 34.8334 69.5858 34.6701V34.5476V34.5203C69.4362 34.5203 69.4906 34.5476 69.5042 34.357V34.3298C69.3545 34.3298 69.3954 34.357 69.3954 34.2073V34.0848V34.0575C69.2457 34.0575 69.3001 34.0848 69.3001 33.8942V33.867C69.1504 33.867 69.2049 33.8942 69.2049 33.7036V33.6764C69.0416 33.6764 69.096 33.7036 69.1096 33.5131V33.4858C68.9464 33.4858 69.0008 33.5131 69.0144 33.3361V33.2953C68.8511 33.2953 68.9055 33.3225 68.9191 33.1455V33.1047C68.7695 33.1047 68.8103 33.1319 68.8239 32.9686V32.9278C68.6606 32.9278 68.715 32.9686 68.7287 32.778V32.7508C68.5654 32.7508 68.6198 32.778 68.6334 32.6011V32.5739C68.4837 32.5739 68.5382 32.6011 68.5246 32.4241V32.3833C68.3885 32.3833 68.4293 32.4105 68.4429 32.2608C68.2933 32.288 68.3477 32.3016 68.3477 32.1383V32.0974C68.198 32.0974 68.2388 32.1247 68.2388 31.9613V31.9205C68.1028 31.9205 68.1436 31.9477 68.1436 31.798C68.0075 31.8116 68.0483 31.8388 68.0483 31.6755V31.6346C67.9123 31.6346 67.9395 31.6755 67.9531 31.5258C67.8034 31.553 67.8579 31.5666 67.8579 31.4032V31.3624C67.7082 31.3624 67.749 31.4032 67.7626 31.2399C67.613 31.2671 67.6674 31.2807 67.6674 31.1174V31.0766C67.5177 31.0766 67.5585 31.1038 67.5721 30.9541C67.4361 30.9677 67.4769 30.9949 67.4905 30.8588C67.3544 30.8724 67.3953 30.8996 67.3953 30.7499L67.3136 30.6002C67.164 30.6002 67.2048 30.641 67.2184 30.4913C67.0687 30.5049 67.1231 30.5321 67.1095 30.3824L67.0279 30.2462C66.8782 30.2462 66.9054 30.2871 66.919 30.1374C66.783 30.151 66.8238 30.1782 66.8374 30.0421C66.7013 30.0557 66.7422 30.0829 66.7422 29.9468C66.6061 29.9604 66.6469 29.9876 66.6469 29.8515C66.5109 29.8651 66.5381 29.8923 66.5517 29.7562C66.402 29.7698 66.4428 29.7971 66.4428 29.6473L65.4496 28.6673C65.2999 28.6537 65.3271 28.6945 65.3407 28.5584C65.2047 28.572 65.2319 28.5992 65.2455 28.4631C65.1094 28.4767 65.1366 28.5039 65.1502 28.3814C65.0142 28.3951 65.0414 28.4223 65.055 28.2862C64.9053 28.2998 64.9462 28.3406 64.9462 28.1909L64.8101 28.1092C64.6604 28.1092 64.674 28.15 64.7012 28.0139C64.5652 28.0275 64.5924 28.0548 64.606 27.9323C64.4563 27.9459 64.4972 27.9731 64.4972 27.837H64.4563C64.3067 27.837 64.3203 27.8778 64.3475 27.7417C64.1978 27.7553 64.225 27.7961 64.2522 27.66C64.1026 27.6736 64.1298 27.7145 64.1298 27.5647H64.089C63.9257 27.5647 63.9529 27.6192 63.9665 27.4695C63.8168 27.4831 63.8441 27.5239 63.8441 27.3742L63.6944 27.2925C63.5447 27.2789 63.5719 27.3197 63.5719 27.1836H63.5311C63.3678 27.1972 63.3814 27.2381 63.4087 27.0883C63.259 27.1019 63.2862 27.1428 63.2862 26.993H63.2454C63.0821 26.993 63.0957 27.0475 63.1229 26.8978C62.9597 26.9114 63.0005 26.9522 63.0005 26.8025H62.9597C62.7828 26.8025 62.8236 26.8433 62.8236 26.6936H62.7964C62.6195 26.7072 62.6467 26.748 62.6603 26.6119C62.5107 26.6255 62.5379 26.6664 62.5379 26.5302H62.497C62.3202 26.5302 62.361 26.5711 62.361 26.435H62.3202C62.1433 26.435 62.1841 26.4758 62.1841 26.3397H62.1433C61.9664 26.3397 61.9936 26.3941 61.9936 26.2444H61.9528C61.7623 26.2444 61.8031 26.2988 61.8031 26.1491H61.7759C61.5854 26.1491 61.6263 26.2036 61.6263 26.0538H61.599C61.4086 26.0538 61.4358 26.1219 61.4358 25.9586H61.4086C61.2181 25.9586 61.2589 26.013 61.2589 25.8633H61.2317C61.0412 25.8633 61.0684 25.9177 61.0684 25.768H61.0412L60.9323 25.7544C60.7827 25.7544 60.8099 25.7952 60.8099 25.6591H60.7691C60.5786 25.6591 60.6058 25.7272 60.6058 25.5774H60.5786H60.4561C60.3065 25.5774 60.3337 25.6183 60.3337 25.4685H60.3065C60.1024 25.4821 60.1296 25.5366 60.1296 25.3869L60.0752 25.4141L59.8983 25.278L59.8166 25.3052L59.6262 25.1827L59.5445 25.2099L59.354 25.0874L59.2588 25.1146L59.0683 24.9921L58.9731 25.0193L58.7826 24.9104L58.6873 24.9377L58.4832 24.8288L58.4016 24.856L58.2519 24.8288C58.0615 24.8288 58.0887 24.8968 58.0887 24.7471L58.0206 24.7743L57.7621 24.6382L57.6533 24.679L57.3675 24.5429L57.2723 24.5838L57.0002 24.4476L56.8233 24.4749L56.5376 24.3524L56.2926 24.366L55.9933 24.2571L55.6532 24.2707L55.2722 24.1482L54.1701 24.0801C53.8435 24.0801 53.7619 24.0937 53.4898 23.9712H50.1427C49.925 24.0937 49.925 24.0801 49.612 24.0665L49.8706 24.4068ZM0.00408465 16.09V87.1841C0.00408465 89.1714 1.31027 93.1461 2.33073 94.8339C2.46679 95.0653 2.54843 95.2559 2.6981 95.4873C4.30362 97.9782 5.8003 99.5027 8.31743 100.959C10.3447 102.13 13.6782 103.001 16.4403 103.001H86.403C88.9065 103.001 93.4782 101.068 95.4783 99.598C99.1248 96.9029 101.138 93.7042 101.805 89.1034C101.982 87.8375 101.941 86.3947 101.941 84.979C101.941 62.6013 102.05 40.0059 101.941 17.669C101.941 16.3895 102.104 15.0828 101.9 13.7352C101.438 10.5773 100.417 7.11991 98.1723 4.79231C97.0566 3.63531 97.1247 3.71698 95.9545 2.84583C93.5326 1.02186 89.4644 0.000976562 86.1309 0.000976562H16.4539C14.0184 0.000976562 10.7393 1.15797 8.53513 2.24691C6.90239 3.05 5.5826 4.04366 4.30362 5.32316C4.2492 5.37761 4.22199 5.41845 4.16756 5.47289L2.97022 6.86129C2.39876 7.54188 1.85452 8.57637 1.47355 9.43391C0.589148 11.4348 -0.00952148 13.708 -0.00952148 16.09H0.00408465Z" fill="#E57E9E"/>
</g>
<defs>
<clipPath id="clip0_143_502">
<rect width="102" height="103" fill="white" transform="translate(0.000244141)"/>
</clipPath>
</defs>
</svg>
