<?xml version="1.0" encoding="utf-8"?>
<!-- Generator: Adobe Illustrator 26.5.0, SVG Export Plug-In . SVG Version: 6.00 Build 0)  -->
<svg version="1.1" id="Слой_1" xmlns:xodm="http://www.corel.com/coreldraw/odm/2003"
	 xmlns="http://www.w3.org/2000/svg" xmlns:xlink="http://www.w3.org/1999/xlink" x="0px" y="0px" viewBox="0 0 45 45.1"
	 style="enable-background:new 0 0 45 45.1;" xml:space="preserve">
<style type="text/css">
	.st0{fill:#F082C9;}
	.st1{fill:none;stroke:#F082C9;stroke-miterlimit:10;}
</style>
<g id="Слой_x0020_1">
	<g id="XMLID_00000147193100222945669800000002668096753424981392_">
		<g>
			<path class="st0" d="M22.2,23.2c-2.5,6.2,4.3,6.9,6.6,3.2c1.7-1.9,3.2-8.3,1.4-11.7c-0.9-1.8-3.6-3.2-6.6-3.6
				c-1-0.1-2.1-0.1-3.1,0.2c-4.6,1.1-8,5.4-6.8,11c0.3,1.1,0.9,1.5,1.3,2.2c0.1,0.3,0.1,0.6,0.1,1c-0.1,0.4-0.2,0.7-0.4,1
				c-0.7,0.9-1.5,0.7-2.1,0.2c-3.1-1.6-4.1-8.5-1.6-12.2c1.8-3.1,4-5.1,8.3-6.4c11.5-2.6,19.7,5.8,15.4,17c-1.4,4.1-7,9.4-12.9,6
				c-2.1-1.7-0.9-2.1-2.1,1.8c-0.7,3.5-1.9,5.5-3.3,7.4c-1.9,3.5-1.6-2.1-1.6-4.1c0.1-2,0.7-3.7,1.1-5.6c0.3-1.5,0.7-3,1.1-4.6
				c0.2-0.8,0.4-1.5,0.5-2.3c-0.2-2.1-1-4,0.1-6.3c0.8-2,4.2-3.3,5.5-0.9C24,18.4,22.7,21.1,22.2,23.2z"/>
		</g>
		<g>
			<path class="st1" d="M17,25.9c0.2-0.8,0.4-1.5,0.5-2.3c-0.2-2.1-1-4,0.1-6.3c0.8-2,4.2-3.3,5.5-0.9c0.9,2-0.4,4.7-0.9,6.7
				c-2.5,6.2,4.3,6.9,6.6,3.2c1.7-1.9,3.2-8.3,1.4-11.7c-0.9-1.8-3.6-3.2-6.6-3.6c-1-0.1-2.1-0.1-3.1,0.2c-4.6,1.1-8,5.4-6.8,11
				c0.3,1.1,0.9,1.5,1.3,2.2c0.1,0.3,0.1,0.6,0.1,1c-0.1,0.4-0.2,0.7-0.4,1c-0.7,0.9-1.5,0.7-2.1,0.2c-3.1-1.6-4.1-8.5-1.6-12.2
				c1.8-3.1,4-5.1,8.3-6.4c11.5-2.6,19.7,5.8,15.4,17c-1.4,4.1-7,9.4-12.9,6c-2.1-1.7-0.9-2.1-2.1,1.8c-0.7,3.5-1.9,5.5-3.3,7.4
				c-1.9,3.5-1.6-2.1-1.6-4.1c0.1-2,0.7-3.7,1.1-5.6C16.3,29,16.6,27.5,17,25.9z"/>
			<path class="st1" d="M0.9,7.5v30.2c0,0.9,0.6,2.5,1,3.2C1.9,41,2,41.1,2,41.2c0.7,1,1.3,1.7,2.4,2.3c0.9,0.5,2.3,0.9,3.5,0.9
				h29.7c1.1,0,3-0.8,3.8-1.4c1.5-1.1,2.4-2.5,2.7-4.5c0.1-0.5,0.1-1.1,0.1-1.8c0-9.5,0-19.1,0-28.6c0-0.6,0.1-1.1,0-1.7
				c-0.2-1.3-0.6-2.8-1.6-3.8c-0.5-0.5-0.4-0.5-0.9-0.8c-1-0.8-2.8-1.2-4.2-1.2H7.9c-1,0-2.4,0.5-3.4,0.9C3.8,2,3.3,2.4,2.7,2.9
				c0,0,0,0-0.1,0.1L2.1,3.6C1.9,3.9,1.7,4.3,1.5,4.7C1.1,5.5,0.9,6.5,0.9,7.5z"/>
		</g>
	</g>
</g>
</svg>
